<?xml version="1.0" encoding="UTF-8" standalone="no"?>
<svg
   xmlns:dc="http://purl.org/dc/elements/1.1/"
   xmlns:cc="http://creativecommons.org/ns#"
   xmlns:rdf="http://www.w3.org/1999/02/22-rdf-syntax-ns#"
   xmlns:svg="http://www.w3.org/2000/svg"
   xmlns="http://www.w3.org/2000/svg"
   xmlns:sodipodi="http://sodipodi.sourceforge.net/DTD/sodipodi-0.dtd"
   xmlns:inkscape="http://www.inkscape.org/namespaces/inkscape"
   version="1.1"
   preserveAspectRatio="xMidYMid"
   xml:space="preserve"
   width="320.32614pt"
   height="247.17982pt"
   viewBox="-0.80189 -1.973819 320.32614 247.17982"
   id="svg2"
   inkscape:version="0.91 r13725"
   sodipodi:docname="project-modules-overview.svg"><metadata
     id="metadata146"><rdf:RDF><cc:Work
         rdf:about=""><dc:format>image/svg+xml</dc:format><dc:type
           rdf:resource="http://purl.org/dc/dcmitype/StillImage" /><dc:title></dc:title></cc:Work></rdf:RDF></metadata><defs
     id="defs144" /><sodipodi:namedview
     pagecolor="#ffffff"
     bordercolor="#666666"
     borderopacity="1"
     objecttolerance="10"
     gridtolerance="10"
     guidetolerance="10"
     inkscape:pageopacity="0"
     inkscape:pageshadow="2"
     inkscape:window-width="836"
     inkscape:window-height="480"
     id="namedview142"
     showgrid="false"
     fit-margin-top="0"
     fit-margin-left="0"
     fit-margin-right="0"
     fit-margin-bottom="0"
     inkscape:zoom="0.23173306"
     inkscape:cx="220.89838"
     inkscape:cy="-170.0001"
     inkscape:window-x="0"
     inkscape:window-y="0"
     inkscape:window-maximized="0"
     inkscape:current-layer="svg2" /><g
     transform="matrix(1,0,0,-1,-143.67925,791.81464)"
     id="g4"><g
       stroke-miterlimit="3"
       letter-spacing="normal"
       font-weight="normal"
       font-style="normal"
       baseline-shift="0"
       id="g6"
       style="font-style:normal;font-weight:normal;letter-spacing:normal;baseline-shift:0px;fill:none;fill-rule:evenodd;stroke:#000000;stroke-width:1;stroke-linecap:round;stroke-linejoin:round;stroke-miterlimit:3"><g
         transform="matrix(0.75,0,0,0.75,0,816.45001)"
         id="g8"><g
           transform="scale(0.959748,-0.959436)"
           font-size="18"
           id="g10"
           style="font-size:18px;font-family:Roboto,sans-serif"><path
             d="m 199,136 0,146 m 0,0 444,0 m 0,0 0,-146 m 0,0 -444,0"
             id="path12"
             inkscape:connector-curvature="0" /><text
             transform="translate(407,140)"
             font-size="10"
             id="text14"
             style="font-size:10px;fill:#000000;stroke:none"><tspan
               dx="0"
               x="0"
               y="9"
               id="tspan16">NEBA</tspan></text>
<path
             d="m 356,35 0,48 224,0 0,-36 -12,-12 -212,0"
             id="path18"
             inkscape:connector-curvature="0"
             style="fill:#dfdfdf;stroke:none" /><path
             d="m 353,32 0,48 224,0 0,-36 -12,-12 -212,0"
             id="path20"
             inkscape:connector-curvature="0"
             style="fill:#ffffff" /><path
             d="m 565,32 0,12 12,0 -12,-12"
             id="path22"
             inkscape:connector-curvature="0"
             style="fill:#dcdcdc" /></g><g
           transform="scale(0.959748,0.959436)"
           font-size="10"
           id="g24"
           style="font-size:10px;font-family:Roboto,sans-serif"><text
             transform="scale(1,-1)"
             id="text26"
             style="fill:#000000;stroke:none"><tspan
               dx="0"
               x="358"
               y="56"
               id="tspan28">Each component represents an independent </tspan></text>
<text
             transform="scale(1,-1)"
             id="text30"
             style="fill:#000000;stroke:none"><tspan
               dx="0"
               x="358"
               y="68"
               id="tspan32">maven module</tspan></text>
</g><g
           transform="scale(0.959748,-0.959436)"
           font-size="10"
           id="g34"
           style="font-size:10px;font-family:Roboto,sans-serif"><path
             d="m 243,197 c 0,-5 0,-5 5,-5 l 139,0 c 5,0 5,0 5,5 l 0,41 c 0,5 0,5 -5,5 l -139,0 c -5,0 -5,0 -5,-5 l 0,-41"
             id="path36"
             inkscape:connector-curvature="0"
             style="fill:#dfdfdf;stroke:none" /><path
             d="m 240,194 c 0,-5 0,-5 5,-5 l 139,0 c 5,0 5,0 5,5 l 0,41 c 0,5 0,5 -5,5 l -139,0 c -5,0 -5,0 -5,-5 l 0,-41"
             id="path38"
             inkscape:connector-curvature="0"
             style="fill:#fee6e6;stroke:none" /><path
             d="m 240,194 c 0,-5 0,-5 5,-5 l 139,0 c 5,0 5,0 5,5 l 0,41 c 0,5 0,5 -5,5 l -139,0 c -5,0 -5,0 -5,-5 l 0,-41 m 0,0 c 0,-5 0,-5 5,-5 l 139,0 c 5,0 5,0 5,5 l 0,41 c 0,5 0,5 -5,5 l -139,0 c -5,0 -5,0 -5,-5 l 0,-41"
             id="path40"
             inkscape:connector-curvature="0" /><rect
             x="240"
             y="189"
             width="149"
             height="51"
             id="rect42" /><text
             transform="translate(277,198)"
             font-weight="bold"
             id="text44"
             style="font-weight:bold;fill:#000000;stroke:none"><tspan
               dx="0"
               x="0"
               y="9"
               id="tspan46">io.neba.api</tspan></text>
<path
             d="m 374,199 c 0,-5 0,-5 4,-5 l 2,0 c 4,0 4,0 4,5 l 0,6 c 0,5 0,5 -4,5 l -2,0 c -4,0 -4,0 -4,-5 l 0,-6"
             id="path48"
             inkscape:connector-curvature="0"
             style="fill:#fee6e6;stroke:none" /><path
             d="m 374,199 c 0,-5 0,-5 4,-5 l 2,0 c 4,0 4,0 4,5 l 0,6 c 0,5 0,5 -4,5 l -2,0 c -4,0 -4,0 -4,-5 l 0,-6"
             id="path50"
             inkscape:connector-curvature="0" /><path
             d="m 371,199 c 0,-3 0,-3 2,-3 l 2,0 c 2,0 2,0 2,3 l 0,-2 c 0,3 0,3 -2,3 l -2,0 c -2,0 -2,0 -2,-3 l 0,2"
             id="path52"
             inkscape:connector-curvature="0"
             style="fill:#fee6e6;stroke:none" /><path
             d="m 371,199 c 0,-3 0,-3 2,-3 l 2,0 c 2,0 2,0 2,3 l 0,-2 c 0,3 0,3 -2,3 l -2,0 c -2,0 -2,0 -2,-3 l 0,2"
             id="path54"
             inkscape:connector-curvature="0" /><path
             d="m 371,206 c 0,-3 0,-3 2,-3 l 2,0 c 2,0 2,0 2,3 l 0,-2 c 0,3 0,3 -2,3 l -2,0 c -2,0 -2,0 -2,-3 l 0,2"
             id="path56"
             inkscape:connector-curvature="0"
             style="fill:#fee6e6;stroke:none" /><path
             d="m 371,206 c 0,-3 0,-3 2,-3 l 2,0 c 2,0 2,0 2,3 l 0,-2 c 0,3 0,3 -2,3 l -2,0 c -2,0 -2,0 -2,-3 l 0,2"
             id="path58"
             inkscape:connector-curvature="0" /><path
             d="m 458,198 c 0,-5 0,-5 5,-5 l 142,0 c 5,0 5,0 5,5 l 0,42 c 0,5 0,5 -5,5 l -142,0 c -5,0 -5,0 -5,-5 l 0,-42"
             id="path60"
             inkscape:connector-curvature="0"
             style="fill:#dfdfdf;stroke:none" /><path
             d="m 455,195 c 0,-5 0,-5 5,-5 l 142,0 c 5,0 5,0 5,5 l 0,42 c 0,5 0,5 -5,5 l -142,0 c -5,0 -5,0 -5,-5 l 0,-42"
             id="path62"
             inkscape:connector-curvature="0"
             style="fill:#fee6e6;stroke:none" /><path
             d="m 455,195 c 0,-5 0,-5 5,-5 l 142,0 c 5,0 5,0 5,5 l 0,42 c 0,5 0,5 -5,5 l -142,0 c -5,0 -5,0 -5,-5 l 0,-42 m 0,0 c 0,-5 0,-5 5,-5 l 142,0 c 5,0 5,0 5,5 l 0,42 c 0,5 0,5 -5,5 l -142,0 c -5,0 -5,0 -5,-5 l 0,-42"
             id="path64"
             inkscape:connector-curvature="0" /><rect
             x="455"
             y="190"
             width="152"
             height="52"
             id="rect66" /><text
             transform="translate(489,199)"
             font-weight="bold"
             id="text68"
             style="font-weight:bold;fill:#000000;stroke:none"><tspan
               dx="0"
               x="0"
               y="9"
               id="tspan70">io.neba.core</tspan></text>
<path
             d="m 592,200 c 0,-5 0,-5 4,-5 l 2,0 c 4,0 4,0 4,5 l 0,6 c 0,5 0,5 -4,5 l -2,0 c -4,0 -4,0 -4,-5 l 0,-6"
             id="path72"
             inkscape:connector-curvature="0"
             style="fill:#fee6e6;stroke:none" /><path
             d="m 592,200 c 0,-5 0,-5 4,-5 l 2,0 c 4,0 4,0 4,5 l 0,6 c 0,5 0,5 -4,5 l -2,0 c -4,0 -4,0 -4,-5 l 0,-6"
             id="path74"
             inkscape:connector-curvature="0" /><path
             d="m 589,200 c 0,-3 0,-3 2,-3 l 2,0 c 2,0 2,0 2,3 l 0,-2 c 0,3 0,3 -2,3 l -2,0 c -2,0 -2,0 -2,-3 l 0,2"
             id="path76"
             inkscape:connector-curvature="0"
             style="fill:#fee6e6;stroke:none" /><path
             d="m 589,200 c 0,-3 0,-3 2,-3 l 2,0 c 2,0 2,0 2,3 l 0,-2 c 0,3 0,3 -2,3 l -2,0 c -2,0 -2,0 -2,-3 l 0,2"
             id="path78"
             inkscape:connector-curvature="0" /><path
             d="m 589,207 c 0,-3 0,-3 2,-3 l 2,0 c 2,0 2,0 2,3 l 0,-2 c 0,3 0,3 -2,3 l -2,0 c -2,0 -2,0 -2,-3 l 0,2"
             id="path80"
             inkscape:connector-curvature="0"
             style="fill:#fee6e6;stroke:none" /><path
             d="m 589,207 c 0,-3 0,-3 2,-3 l 2,0 c 2,0 2,0 2,3 l 0,-2 c 0,3 0,3 -2,3 l -2,0 c -2,0 -2,0 -2,-3 l 0,2"
             id="path82"
             inkscape:connector-curvature="0" /><path
             d="m 477,308 0,67 115,0 0,-55 -12,-12 -103,0"
             id="path84"
             inkscape:connector-curvature="0"
             style="fill:#dfdfdf;stroke:none" /><path
             d="m 474,305 0,67 115,0 0,-55 -12,-12 -103,0"
             id="path86"
             inkscape:connector-curvature="0"
             style="fill:#ffffff" /><path
             d="m 577,305 0,12 12,0 -12,-12"
             id="path88"
             inkscape:connector-curvature="0"
             style="fill:#dcdcdc" /></g><g
           transform="scale(0.959748,0.959436)"
           font-size="10"
           id="g90"
           style="font-size:10px;font-family:Roboto,sans-serif"><text
             transform="scale(1,-1)"
             id="text92"
             style="fill:#000000;stroke:none"><tspan
               dx="0"
               x="479"
               y="329"
               id="tspan94">Implements all NEBA </tspan></text>
<text
             transform="scale(1,-1)"
             id="text96"
             style="fill:#000000;stroke:none"><tspan
               dx="0"
               x="479"
               y="341"
               id="tspan98">features, amends </tspan></text>
<text
             transform="scale(1,-1)"
             id="text100"
             style="fill:#000000;stroke:none"><tspan
               dx="0"
               x="479"
               y="353"
               id="tspan102">gemini-blueprint-</tspan></text>
<text
             transform="scale(1,-1)"
             id="text104"
             style="fill:#000000;stroke:none"><tspan
               dx="0"
               x="479"
               y="365"
               id="tspan106">extender</tspan></text>
</g><g
           transform="scale(0.959748,-0.959436)"
           id="g108"><path
             d="m 262,304 0,71 115,0 0,-59 -12,-12 -103,0"
             id="path110"
             inkscape:connector-curvature="0"
             style="fill:#dfdfdf;stroke:none" /><path
             d="m 259,301 0,71 115,0 0,-59 -12,-12 -103,0"
             id="path112"
             inkscape:connector-curvature="0"
             style="fill:#ffffff" /><path
             d="m 362,301 0,12 12,0 -12,-12"
             id="path114"
             inkscape:connector-curvature="0"
             style="fill:#dcdcdc" /></g><g
           transform="scale(0.959748,0.959436)"
           font-size="10"
           id="g116"
           style="font-size:10px;font-family:Roboto,sans-serif"><text
             transform="scale(1,-1)"
             id="text118"
             style="fill:#000000;stroke:none"><tspan
               dx="0"
               x="264"
               y="325"
               id="tspan120">Public NEBA API </tspan></text>
<text
             transform="scale(1,-1)"
             id="text122"
             style="fill:#000000;stroke:none"><tspan
               dx="0"
               x="264"
               y="337"
               id="tspan124">(annotations, service </tspan></text>
<text
             transform="scale(1,-1)"
             id="text126"
             style="fill:#000000;stroke:none"><tspan
               dx="0"
               x="264"
               y="349"
               id="tspan128">interfaces, tag libraries)</tspan></text>
</g><g
           transform="scale(0.959748,-0.959436)"
           id="g130"><path
             d="m 419,136 0,-52"
             id="path132"
             inkscape:connector-curvature="0"
             style="stroke-dasharray:3, 4" /><path
             d="m 315,241 0,59"
             id="path134"
             inkscape:connector-curvature="0"
             style="stroke-dasharray:3, 4" /><path
             d="m 531,243 0,59"
             id="path136"
             inkscape:connector-curvature="0"
             style="stroke-dasharray:3, 4" /><path
             d="m 390,215 62,0"
             id="path138"
             inkscape:connector-curvature="0"
             style="stroke-dasharray:7, 4" /><path
             d="m 405,209 0,12 -15,-6 15,-6"
             id="path140"
             inkscape:connector-curvature="0"
             style="fill:#fcf2e3" /></g></g></g></g></svg>