<?xml version="1.0" encoding="UTF-8" standalone="no"?>
<svg
   xmlns:dc="http://purl.org/dc/elements/1.1/"
   xmlns:cc="http://creativecommons.org/ns#"
   xmlns:rdf="http://www.w3.org/1999/02/22-rdf-syntax-ns#"
   xmlns:svg="http://www.w3.org/2000/svg"
   xmlns="http://www.w3.org/2000/svg"
   xmlns:sodipodi="http://sodipodi.sourceforge.net/DTD/sodipodi-0.dtd"
   xmlns:inkscape="http://www.inkscape.org/namespaces/inkscape"
   version="1.1"
   preserveAspectRatio="xMidYMid"
   xml:space="preserve"
   width="666.91003pt"
   height="372.3862pt"
   viewBox="-0.80189 -1.973819 666.91003 372.3862"
   id="svg2"
   inkscape:version="0.91 r13725"
   sodipodi:docname="resourcemodel-registration.svg"><metadata
     id="metadata328"><rdf:RDF><cc:Work
         rdf:about=""><dc:format>image/svg+xml</dc:format><dc:type
           rdf:resource="http://purl.org/dc/dcmitype/StillImage" /><dc:title></dc:title></cc:Work></rdf:RDF></metadata><defs
     id="defs326" /><sodipodi:namedview
     pagecolor="#ffffff"
     bordercolor="#666666"
     borderopacity="1"
     objecttolerance="10"
     gridtolerance="10"
     guidetolerance="10"
     inkscape:pageopacity="0"
     inkscape:pageshadow="2"
     inkscape:window-width="836"
     inkscape:window-height="480"
     id="namedview324"
     showgrid="false"
     fit-margin-top="0"
     fit-margin-left="0"
     fit-margin-right="0"
     fit-margin-bottom="0"
     inkscape:zoom="0.23173306"
     inkscape:cx="372.95857"
     inkscape:cy="35.07932"
     inkscape:window-x="0"
     inkscape:window-y="0"
     inkscape:window-maximized="0"
     inkscape:current-layer="svg2" /><g
     transform="matrix(1,0,0,-1,-127.12359,752.95746)"
     id="g4"><g
       stroke-miterlimit="3"
       letter-spacing="normal"
       font-weight="normal"
       font-style="normal"
       baseline-shift="0"
       id="g6"
       style="font-style:normal;font-weight:normal;letter-spacing:normal;baseline-shift:0px;fill:none;fill-rule:evenodd;stroke:#000000;stroke-width:1;stroke-linecap:round;stroke-linejoin:round;stroke-miterlimit:3"><g
         transform="matrix(0.75,0,0,0.75,0,816.45001)"
         id="g8"><g
           transform="scale(0.959748,-0.959436)"
           font-size="18"
           id="g10"
           style="font-size:18px;font-family:Roboto,sans-serif"><path
             d="m 357,333.5 c 0,-5.8 4.7,-10.5 10.5,-10.5 5.8,0 10.5,4.7 10.5,10.5 0,5.8 -4.7,10.5 -10.5,10.5 -5.8,0 -10.5,-4.7 -10.5,-10.5"
             id="path12"
             inkscape:connector-curvature="0"
             style="fill:#dfdfdf;stroke:none" /><path
             d="m 355,331.5 c 0,-5.8 4.7,-10.5 10.5,-10.5 5.8,0 10.5,4.7 10.5,10.5 0,5.8 -4.7,10.5 -10.5,10.5 -5.8,0 -10.5,-4.7 -10.5,-10.5"
             id="path14"
             inkscape:connector-curvature="0"
             style="fill:#f8e2c1;stroke:none" /><path
             d="m 355,331.5 c 0,-5.8 4.7,-10.5 10.5,-10.5 5.8,0 10.5,4.7 10.5,10.5 0,5.8 -4.7,10.5 -10.5,10.5 -5.8,0 -10.5,-4.7 -10.5,-10.5 m 0,0 c 0,-5.8 4.7,-10.5 10.5,-10.5 5.8,0 10.5,4.7 10.5,10.5 0,5.8 -4.7,10.5 -10.5,10.5 -5.8,0 -10.5,-4.7 -10.5,-10.5 m 11,11.5 0,21 m -15,-16 15,0 m 15,0 -15,0 m 0,16 12,21"
             id="path16"
             inkscape:connector-curvature="0" /><path
             d="m 366,364 -12,21"
             id="path18"
             inkscape:connector-curvature="0" /><text
             transform="translate(344,385)"
             font-size="10"
             font-weight="bold"
             id="text20"
             style="font-weight:bold;font-size:10px;fill:#000000;stroke:none"><tspan
               dx="0"
               x="0"
               y="9"
               id="tspan22">Anything</tspan></text>
<path
             d="m 318,218 c 0,-5 0,-5 5,-5 l 89,0 c 5,0 5,0 5,5 l 0,44 c 0,5 0,5 -5,5 l -89,0 c -5,0 -5,0 -5,-5 l 0,-44"
             id="path24"
             inkscape:connector-curvature="0"
             style="fill:#dfdfdf;stroke:none" /><path
             d="m 315,215 c 0,-5 0,-5 5,-5 l 89,0 c 5,0 5,0 5,5 l 0,44 c 0,5 0,5 -5,5 l -89,0 c -5,0 -5,0 -5,-5 l 0,-44"
             id="path26"
             inkscape:connector-curvature="0"
             style="fill:#c8eef0;stroke:none" /><path
             d="m 315,215 c 0,-5 0,-5 5,-5 l 89,0 c 5,0 5,0 5,5 l 0,44 c 0,5 0,5 -5,5 l -89,0 c -5,0 -5,0 -5,-5 l 0,-44 m 0,0 c 0,-5 0,-5 5,-5 l 89,0 c 5,0 5,0 5,5 l 0,44 c 0,5 0,5 -5,5 l -89,0 c -5,0 -5,0 -5,-5 l 0,-44"
             id="path28"
             inkscape:connector-curvature="0" /><rect
             x="315"
             y="210"
             width="99"
             height="54"
             id="rect30" /><text
             transform="translate(317,219)"
             font-size="10"
             font-weight="bold"
             id="text32"
             style="font-weight:bold;font-size:10px;fill:#000000;stroke:none"><tspan
               dx="0"
               x="0"
               y="9"
               id="tspan34">:ActivationHandler</tspan></text>
<path
             d="m 537,222 c 0,-5 0,-5 5,-5 l 162,0 c 5,0 5,0 5,5 l 0,41 c 0,5 0,5 -5,5 l -162,0 c -5,0 -5,0 -5,-5 l 0,-41"
             id="path36"
             inkscape:connector-curvature="0"
             style="fill:#dfdfdf;stroke:none" /><path
             d="m 534,219 c 0,-5 0,-5 5,-5 l 162,0 c 5,0 5,0 5,5 l 0,41 c 0,5 0,5 -5,5 l -162,0 c -5,0 -5,0 -5,-5 l 0,-41"
             id="path38"
             inkscape:connector-curvature="0"
             style="fill:#c8eef0;stroke:none" /><path
             d="m 534,219 c 0,-5 0,-5 5,-5 l 162,0 c 5,0 5,0 5,5 l 0,41 c 0,5 0,5 -5,5 l -162,0 c -5,0 -5,0 -5,-5 l 0,-41 m 0,0 c 0,-5 0,-5 5,-5 l 162,0 c 5,0 5,0 5,5 l 0,41 c 0,5 0,5 -5,5 l -162,0 c -5,0 -5,0 -5,-5 l 0,-41"
             id="path40"
             inkscape:connector-curvature="0" /><rect
             x="534"
             y="214"
             width="172"
             height="51"
             id="rect42" /><text
             transform="translate(549,220)"
             font-size="10"
             id="text44"
             style="font-size:10px;fill:#000000;stroke:none"><tspan
               dx="0"
               x="0"
               y="9"
               id="tspan46">«&lt;&lt;OsgiBeanFactoryPostPro...</tspan></text>
<text
             transform="translate(536,233)"
             font-size="10"
             font-weight="bold"
             id="text48"
             style="font-weight:bold;font-size:10px;fill:#000000;stroke:none"><tspan
               dx="0"
               x="0"
               y="9"
               id="tspan50">:SlingBeanFactoryPostProcessor</tspan></text>
<path
             d="m 819,220 c 0,-5 0,-5 5,-5 l 89,0 c 5,0 5,0 5,5 l 0,44 c 0,5 0,5 -5,5 l -89,0 c -5,0 -5,0 -5,-5 l 0,-44"
             id="path52"
             inkscape:connector-curvature="0"
             style="fill:#dfdfdf;stroke:none" /><path
             d="m 816,217 c 0,-5 0,-5 5,-5 l 89,0 c 5,0 5,0 5,5 l 0,44 c 0,5 0,5 -5,5 l -89,0 c -5,0 -5,0 -5,-5 l 0,-44"
             id="path54"
             inkscape:connector-curvature="0"
             style="fill:#c8eef0;stroke:none" /><path
             d="m 816,217 c 0,-5 0,-5 5,-5 l 89,0 c 5,0 5,0 5,5 l 0,44 c 0,5 0,5 -5,5 l -89,0 c -5,0 -5,0 -5,-5 l 0,-44 m 0,0 c 0,-5 0,-5 5,-5 l 89,0 c 5,0 5,0 5,5 l 0,44 c 0,5 0,5 -5,5 l -89,0 c -5,0 -5,0 -5,-5 l 0,-44"
             id="path56"
             inkscape:connector-curvature="0" /><rect
             x="816"
             y="212"
             width="99"
             height="54"
             id="rect58" /><text
             transform="translate(825,221)"
             font-size="10"
             font-weight="bold"
             id="text60"
             style="font-weight:bold;font-size:10px;fill:#000000;stroke:none"><tspan
               dx="0"
               x="0"
               y="9"
               id="tspan62">:ModelRegistrar</tspan></text>
<path
             d="m 819,337 c 0,-5 0,-5 5,-5 l 89,0 c 5,0 5,0 5,5 l 0,44 c 0,5 0,5 -5,5 l -89,0 c -5,0 -5,0 -5,-5 l 0,-44"
             id="path64"
             inkscape:connector-curvature="0"
             style="fill:#dfdfdf;stroke:none" /><path
             d="m 816,334 c 0,-5 0,-5 5,-5 l 89,0 c 5,0 5,0 5,5 l 0,44 c 0,5 0,5 -5,5 l -89,0 c -5,0 -5,0 -5,-5 l 0,-44"
             id="path66"
             inkscape:connector-curvature="0"
             style="fill:#c8eef0;stroke:none" /><path
             d="m 816,334 c 0,-5 0,-5 5,-5 l 89,0 c 5,0 5,0 5,5 l 0,44 c 0,5 0,5 -5,5 l -89,0 c -5,0 -5,0 -5,-5 l 0,-44 m 0,0 c 0,-5 0,-5 5,-5 l 89,0 c 5,0 5,0 5,5 l 0,44 c 0,5 0,5 -5,5 l -89,0 c -5,0 -5,0 -5,-5 l 0,-44"
             id="path68"
             inkscape:connector-curvature="0" /><rect
             x="816"
             y="329"
             width="99"
             height="54"
             id="rect70" /><text
             transform="translate(828,338)"
             font-size="10"
             font-weight="bold"
             id="text72"
             style="font-weight:bold;font-size:10px;fill:#000000;stroke:none"><tspan
               dx="0"
               x="0"
               y="9"
               id="tspan74">:ModelRegistry</tspan></text>
<path
             d="m 539,338 c 0,-5 0,-5 5,-5 l 168,0 c 5,0 5,0 5,5 l 0,44 c 0,5 0,5 -5,5 l -168,0 c -5,0 -5,0 -5,-5 l 0,-44"
             id="path76"
             inkscape:connector-curvature="0"
             style="fill:#dfdfdf;stroke:none" /><path
             d="m 536,335 c 0,-5 0,-5 5,-5 l 168,0 c 5,0 5,0 5,5 l 0,44 c 0,5 0,5 -5,5 l -168,0 c -5,0 -5,0 -5,-5 l 0,-44"
             id="path78"
             inkscape:connector-curvature="0"
             style="fill:#c8eef0;stroke:none" /><path
             d="m 536,335 c 0,-5 0,-5 5,-5 l 168,0 c 5,0 5,0 5,5 l 0,44 c 0,5 0,5 -5,5 l -168,0 c -5,0 -5,0 -5,-5 l 0,-44 m 0,0 c 0,-5 0,-5 5,-5 l 168,0 c 5,0 5,0 5,5 l 0,44 c 0,5 0,5 -5,5 l -168,0 c -5,0 -5,0 -5,-5 l 0,-44"
             id="path80"
             inkscape:connector-curvature="0" /><rect
             x="536"
             y="330"
             width="178"
             height="54"
             id="rect82" /><text
             transform="translate(538,339)"
             font-size="10"
             font-weight="bold"
             id="text84"
             style="font-weight:bold;font-size:10px;fill:#000000;stroke:none"><tspan
               dx="0"
               x="0"
               y="9"
               id="tspan86">:ResourceToModelAdapterUpdater</tspan></text>
<path
             d="m 558,461 c 0,-5 0,-5 5,-5 l 128,0 c 5,0 5,0 5,5 l 0,44 c 0,5 0,5 -5,5 l -128,0 c -5,0 -5,0 -5,-5 l 0,-44"
             id="path88"
             inkscape:connector-curvature="0"
             style="fill:#dfdfdf;stroke:none" /><path
             d="m 555,458 c 0,-5 0,-5 5,-5 l 128,0 c 5,0 5,0 5,5 l 0,44 c 0,5 0,5 -5,5 l -128,0 c -5,0 -5,0 -5,-5 l 0,-44"
             id="path90"
             inkscape:connector-curvature="0"
             style="fill:#c8eef0;stroke:none" /><path
             d="m 555,458 c 0,-5 0,-5 5,-5 l 128,0 c 5,0 5,0 5,5 l 0,44 c 0,5 0,5 -5,5 l -128,0 c -5,0 -5,0 -5,-5 l 0,-44 m 0,0 c 0,-5 0,-5 5,-5 l 128,0 c 5,0 5,0 5,5 l 0,44 c 0,5 0,5 -5,5 l -128,0 c -5,0 -5,0 -5,-5 l 0,-44"
             id="path92"
             inkscape:connector-curvature="0" /><rect
             x="555"
             y="453"
             width="138"
             height="54"
             id="rect94" /><text
             transform="translate(574,459)"
             font-size="10"
             id="text96"
             style="font-size:10px;fill:#000000;stroke:none"><tspan
               dx="0"
               x="0"
               y="9"
               id="tspan98">«&lt;&lt;AdapterFactory&gt;»</tspan></text>
<text
             transform="translate(557,472)"
             font-size="10"
             font-weight="bold"
             id="text100"
             style="font-weight:bold;font-size:10px;fill:#000000;stroke:none"><tspan
               dx="0"
               x="0"
               y="9"
               id="tspan102">:ResourceToModelAdapter</tspan></text>
<path
             d="m 555,532 0,71 146,0 0,-59 -12,-12 -134,0"
             id="path104"
             inkscape:connector-curvature="0"
             style="fill:#dfdfdf;stroke:none" /><path
             d="m 552,529 0,71 146,0 0,-59 -12,-12 -134,0"
             id="path106"
             inkscape:connector-curvature="0"
             style="fill:#ffffff" /><path
             d="m 686,529 0,12 12,0 -12,-12"
             id="path108"
             inkscape:connector-curvature="0"
             style="fill:#dcdcdc" /></g><g
           transform="scale(0.959748,0.959436)"
           font-size="10"
           id="g110"
           style="font-size:10px;font-family:Roboto,sans-serif"><text
             transform="scale(1,-1)"
             id="text112"
             style="fill:#000000;stroke:none"><tspan
               dx="0"
               x="557"
               y="553"
               id="tspan114">This Sling AdapterFactory OSGi </tspan></text>
<text
             transform="scale(1,-1)"
             id="text116"
             style="fill:#000000;stroke:none"><tspan
               dx="0"
               x="557"
               y="565"
               id="tspan118">Service enables </tspan></text>
<text
             transform="scale(1,-1)"
             id="text120"
             style="fill:#000000;stroke:none"><tspan
               dx="0"
               x="557"
               y="577"
               id="tspan122">Resource.adaptTo</tspan></text>
<text
             transform="scale(1,-1)"
             id="text124"
             style="fill:#000000;stroke:none"><tspan
               dx="0"
               x="557"
               y="589"
               id="tspan126">(ModelType.class)</tspan></text>
</g><g
           transform="scale(0.959748,-0.959436)"
           id="g128"><path
             d="m 783,421 0,56 173,0 0,-44 -12,-12 -161,0"
             id="path130"
             inkscape:connector-curvature="0"
             style="fill:#dfdfdf;stroke:none" /><path
             d="m 780,418 0,56 173,0 0,-44 -12,-12 -161,0"
             id="path132"
             inkscape:connector-curvature="0"
             style="fill:#ffffff" /><path
             d="m 941,418 0,12 12,0 -12,-12"
             id="path134"
             inkscape:connector-curvature="0"
             style="fill:#dcdcdc" /></g><g
           transform="scale(0.959748,0.959436)"
           font-size="10"
           id="g136"
           style="font-size:10px;font-family:Roboto,sans-serif"><text
             transform="scale(1,-1)"
             id="text138"
             style="fill:#000000;stroke:none"><tspan
               dx="0"
               x="785"
               y="442"
               id="tspan140">Contains the resouceType -&gt; </tspan></text>
<text
             transform="scale(1,-1)"
             id="text142"
             style="fill:#000000;stroke:none"><tspan
               dx="0"
               x="785"
               y="454"
               id="tspan144">ModelSource relationships and </tspan></text>
<text
             transform="scale(1,-1)"
             id="text146"
             style="fill:#000000;stroke:none"><tspan
               dx="0"
               x="785"
               y="466"
               id="tspan148">lookup logic</tspan></text>
</g><g
           transform="scale(0.959748,-0.959436)"
           id="g150"><path
             d="m 301,434 0,91 138,0 0,-79 -12,-12 -126,0"
             id="path152"
             inkscape:connector-curvature="0"
             style="fill:#dfdfdf;stroke:none" /><path
             d="m 298,431 0,91 138,0 0,-79 -12,-12 -126,0"
             id="path154"
             inkscape:connector-curvature="0"
             style="fill:#ffffff" /><path
             d="m 424,431 0,12 12,0 -12,-12"
             id="path156"
             inkscape:connector-curvature="0"
             style="fill:#dcdcdc" /></g><g
           transform="scale(0.959748,0.959436)"
           font-size="10"
           id="g158"
           style="font-size:10px;font-family:Roboto,sans-serif"><text
             transform="scale(1,-1)"
             id="text160"
             style="fill:#000000;stroke:none"><tspan
               dx="0"
               x="303"
               y="455"
               id="tspan162">A Bundle is started after </tspan></text>
<text
             transform="scale(1,-1)"
             id="text164"
             style="fill:#000000;stroke:none"><tspan
               dx="0"
               x="303"
               y="467"
               id="tspan166">installation or re-started after </tspan></text>
<text
             transform="scale(1,-1)"
             id="text168"
             style="fill:#000000;stroke:none"><tspan
               dx="0"
               x="303"
               y="479"
               id="tspan170">an update. Bundle state </tspan></text>
<text
             transform="scale(1,-1)"
             id="text172"
             style="fill:#000000;stroke:none"><tspan
               dx="0"
               x="303"
               y="491"
               id="tspan174">changes may also be caused </tspan></text>
<text
             transform="scale(1,-1)"
             id="text176"
             style="fill:#000000;stroke:none"><tspan
               dx="0"
               x="303"
               y="503"
               id="tspan178">by updates and could be </tspan></text>
<text
             transform="scale(1,-1)"
             id="text180"
             style="fill:#000000;stroke:none"><tspan
               dx="0"
               x="303"
               y="515"
               id="tspan182">initiated programmatically.</tspan></text>
</g><g
           transform="scale(0.959748,-0.959436)"
           id="g184"><path
             d="m 945,221 0,46 157,0 0,-34 -12,-12 -145,0"
             id="path186"
             inkscape:connector-curvature="0"
             style="fill:#dfdfdf;stroke:none" /><path
             d="m 942,218 0,46 157,0 0,-34 -12,-12 -145,0"
             id="path188"
             inkscape:connector-curvature="0"
             style="fill:#ffffff" /><path
             d="m 1087,218 0,12 12,0 -12,-12"
             id="path190"
             inkscape:connector-curvature="0"
             style="fill:#dcdcdc" /></g><g
           transform="scale(0.959748,0.959436)"
           font-size="10"
           id="g192"
           style="font-size:10px;font-family:Roboto,sans-serif"><text
             transform="scale(1,-1)"
             id="text194"
             style="fill:#000000;stroke:none"><tspan
               dx="0"
               x="947"
               y="242"
               id="tspan196">Finds beans with </tspan></text>
<text
             transform="scale(1,-1)"
             id="text198"
             style="fill:#000000;stroke:none"><tspan
               dx="0"
               x="947"
               y="254"
               id="tspan200">@ResourceModel annotation</tspan></text>
</g><g
           transform="scale(0.959748,-0.959436)"
           id="g202"><path
             d="m 179,213 0,55 115,0 0,-43 -12,-12 -103,0"
             id="path204"
             inkscape:connector-curvature="0"
             style="fill:#dfdfdf;stroke:none" /><path
             d="m 176,210 0,55 115,0 0,-43 -12,-12 -103,0"
             id="path206"
             inkscape:connector-curvature="0"
             style="fill:#ffffff" /><path
             d="m 279,210 0,12 12,0 -12,-12"
             id="path208"
             inkscape:connector-curvature="0"
             style="fill:#dcdcdc" /></g><g
           transform="scale(0.959748,0.959436)"
           font-size="10"
           id="g210"
           style="font-size:10px;font-family:Roboto,sans-serif"><text
             transform="scale(1,-1)"
             id="text212"
             style="fill:#000000;stroke:none"><tspan
               dx="0"
               x="181"
               y="234"
               id="tspan214">Provided by gemini-</tspan></text>
<text
             transform="scale(1,-1)"
             id="text216"
             style="fill:#000000;stroke:none"><tspan
               dx="0"
               x="181"
               y="246"
               id="tspan218">blueprint</tspan></text>
</g><g
           transform="scale(0.959748,-0.959436)"
           id="g220"><path
             d="m 551,89 0,60 145,0 0,-48 -12,-12 -133,0"
             id="path222"
             inkscape:connector-curvature="0"
             style="fill:#dfdfdf;stroke:none" /><path
             d="m 548,86 0,60 145,0 0,-48 -12,-12 -133,0"
             id="path224"
             inkscape:connector-curvature="0"
             style="fill:#ffffff" /><path
             d="m 681,86 0,12 12,0 -12,-12"
             id="path226"
             inkscape:connector-curvature="0"
             style="fill:#dcdcdc" /></g><g
           transform="scale(0.959748,0.959436)"
           font-size="10"
           id="g228"
           style="font-size:10px;font-family:Roboto,sans-serif"><text
             transform="scale(1,-1)"
             id="text230"
             style="fill:#000000;stroke:none"><tspan
               dx="0"
               x="553"
               y="110"
               id="tspan232">Implements the post-</tspan></text>
<text
             transform="scale(1,-1)"
             id="text234"
             style="fill:#000000;stroke:none"><tspan
               dx="0"
               x="553"
               y="122"
               id="tspan236">processor interface provided </tspan></text>
<text
             transform="scale(1,-1)"
             id="text238"
             style="fill:#000000;stroke:none"><tspan
               dx="0"
               x="553"
               y="134"
               id="tspan240">by gemini-blueprint</tspan></text>
</g><g
           transform="scale(0.959748,-0.959436)"
           font-size="10"
           id="g242"
           style="font-size:10px;font-family:Roboto,sans-serif"><path
             d="m 942,239 -24,0"
             id="path244"
             inkscape:connector-curvature="0"
             style="stroke-dasharray:3, 4" /><path
             d="m 370,210 0,-27 m 0,0 216,0 m 0,0 0,31"
             id="path246"
             inkscape:connector-curvature="0" /><path
             d="m 657,214 0,-30 m 0,0 207,0 m 0,0 0,28"
             id="path248"
             inkscape:connector-curvature="0" /><path
             d="m 866,267 0,62"
             id="path250"
             inkscape:connector-curvature="0" /><path
             d="m 365,315 0,-50"
             id="path252"
             inkscape:connector-curvature="0" /><path
             d="m 366,412 0,17"
             id="path254"
             inkscape:connector-curvature="0"
             style="stroke-dasharray:3, 4" /><path
             d="m 624,529 0,-17"
             id="path256"
             inkscape:connector-curvature="0"
             style="stroke-dasharray:3, 4" /><path
             d="m 315,237 -24,0"
             id="path258"
             inkscape:connector-curvature="0"
             style="stroke-dasharray:3, 4" /><path
             d="m 620,214 0,-66"
             id="path260"
             inkscape:connector-curvature="0"
             style="stroke-dasharray:3, 4" /><path
             d="m 816,356 -101,0"
             id="path262"
             inkscape:connector-curvature="0" /><path
             d="m 621,385 0,68"
             id="path264"
             inkscape:connector-curvature="0" /><path
             d="m 866,418 0,-31"
             id="path266"
             inkscape:connector-curvature="0"
             style="stroke-dasharray:3, 4" /><text
             transform="translate(386,284)"
             id="text268"
             style="fill:#000000;stroke:none"><tspan
               dx="0"
               x="0"
               y="9"
               id="tspan270">1: change(b:Bundle)</tspan></text>
<path
             d="m 373,309 0,-15"
             id="path272"
             inkscape:connector-curvature="0" /><path
             d="m 373,294 5,0 -5,-8 -5,8 5,0"
             id="path274"
             inkscape:connector-curvature="0"
             style="fill:#000000" /><text
             transform="translate(362,160)"
             id="text276"
             style="fill:#000000;stroke:none"><tspan
               dx="0"
               x="0"
               y="9"
               id="tspan278">1.1: postProcess(c: OsgiApplicationContext)</tspan></text>
<path
             d="m 577,166 15,0"
             id="path280"
             inkscape:connector-curvature="0" /><path
             d="m 592,166 0,-5 8,5 -8,5 0,-5"
             id="path282"
             inkscape:connector-curvature="0"
             style="fill:#000000" /><text
             transform="translate(653,167)"
             id="text284"
             style="fill:#000000;stroke:none"><tspan
               dx="0"
               x="0"
               y="9"
               id="tspan286">1.2: registerModels(bundleContext, beanFactory)</tspan></text>
<path
             d="m 894,173 15,0"
             id="path288"
             inkscape:connector-curvature="0" /><path
             d="m 909,173 0,-5 8,5 -8,5 0,-5"
             id="path290"
             inkscape:connector-curvature="0"
             style="fill:#000000" /><text
             transform="translate(659,292)"
             id="text292"
             style="fill:#000000;stroke:none"><tspan
               dx="0"
               x="0"
               y="9"
               id="tspan294">1.3: add(resourceType, modelSource)</tspan></text>
<path
             d="m 850,279 0,15"
             id="path296"
             inkscape:connector-curvature="0" /><path
             d="m 850,294 5,0 -5,8 -5,-8 5,0"
             id="path298"
             inkscape:connector-curvature="0"
             style="fill:#000000" /><text
             transform="translate(749,365)"
             id="text300"
             style="fill:#000000;stroke:none"><tspan
               dx="0"
               x="0"
               y="9"
               id="tspan302">1.4: refresh()</tspan></text>
<path
             d="m 736,371 -15,0"
             id="path304"
             inkscape:connector-curvature="0" /><path
             d="m 721,371 0,5 -8,-5 8,-5 0,5"
             id="path306"
             inkscape:connector-curvature="0"
             style="fill:#000000" /><text
             transform="translate(532,414)"
             id="text308"
             style="fill:#000000;stroke:none"><tspan
               dx="0"
               x="0"
               y="9"
               id="tspan310">1.5: stop()</tspan></text>
<path
             d="m 596,401 0,15"
             id="path312"
             inkscape:connector-curvature="0" /><path
             d="m 596,416 5,0 -5,8 -5,-8 5,0"
             id="path314"
             inkscape:connector-curvature="0"
             style="fill:#000000" /><text
             transform="translate(659,415)"
             id="text316"
             style="fill:#000000;stroke:none"><tspan
               dx="0"
               x="0"
               y="9"
               id="tspan318">1.6: start()</tspan></text>
<path
             d="m 642,402 0,15"
             id="path320"
             inkscape:connector-curvature="0" /><path
             d="m 642,417 5,0 -5,8 -5,-8 5,0"
             id="path322"
             inkscape:connector-curvature="0"
             style="fill:#000000" /></g></g></g></g></svg>