<?xml version="1.0" encoding="UTF-8" standalone="no"?>
<!-- Created with Inkscape (http://www.inkscape.org/) -->

<svg
   xmlns:dc="http://purl.org/dc/elements/1.1/"
   xmlns:cc="http://creativecommons.org/ns#"
   xmlns:rdf="http://www.w3.org/1999/02/22-rdf-syntax-ns#"
   xmlns:svg="http://www.w3.org/2000/svg"
   xmlns="http://www.w3.org/2000/svg"
   xmlns:sodipodi="http://sodipodi.sourceforge.net/DTD/sodipodi-0.dtd"
   xmlns:inkscape="http://www.inkscape.org/namespaces/inkscape"
   width="41.038464mm"
   height="45.914986mm"
   viewBox="0 0 145.41188 162.69089"
   id="svg3404"
   version="1.1"
   inkscape:version="0.92.2 (5c3e80d, 2017-08-06)"
   sodipodi:docname="header.svg">
  <defs
     id="defs3406" />
  <sodipodi:namedview
     id="base"
     pagecolor="#ffffff"
     bordercolor="#666666"
     borderopacity="1.0"
     inkscape:pageopacity="1"
     inkscape:pageshadow="2"
     inkscape:zoom="5.6"
     inkscape:cx="71.874993"
     inkscape:cy="206.74353"
     inkscape:document-units="px"
     inkscape:current-layer="layer1"
     showgrid="false"
     fit-margin-top="0"
     fit-margin-left="0"
     fit-margin-right="0"
     fit-margin-bottom="0"
     inkscape:window-width="1920"
     inkscape:window-height="1017"
     inkscape:window-x="-8"
     inkscape:window-y="-8"
     inkscape:window-maximized="1" />
  <metadata
     id="metadata3409">
    <rdf:RDF>
      <cc:Work
         rdf:about="">
        <dc:format>image/svg+xml</dc:format>
        <dc:type
           rdf:resource="http://purl.org/dc/dcmitype/StillImage" />
        <dc:title />
      </cc:Work>
    </rdf:RDF>
  </metadata>
  <g
     inkscape:label="Layer 1"
     inkscape:groupmode="layer"
     id="layer1"
     transform="translate(-13.008348,-13.873863)">
    <path
       style="fill:#05ff4a;fill-opacity:0.6130653;fill-rule:evenodd;stroke:none;stroke-width:5.36208963;stroke-linecap:butt;stroke-linejoin:miter;stroke-miterlimit:4;stroke-dasharray:none;stroke-dashoffset:0;stroke-opacity:1"
       d="M -20.793841,-30.154549 C -2.9993571,-8.2915696 12.300856,6.7803306 30.095328,25.481583 59.0448,10.63785 98.084141,-1.0757654 127.03363,-15.919507 107.71256,-46.365088 88.39148,-76.810673 69.070418,-107.25626 34.451687,-79.836149 13.824889,-57.574659 -20.793841,-30.154549 Z"
       id="path5208-8-6-1"
       inkscape:connector-curvature="0"
       sodipodi:nodetypes="ccccc" />
    <path
       style="fill:#00ffff;fill-opacity:0.73366833;fill-rule:evenodd;stroke:none;stroke-width:5.36208963;stroke-linecap:butt;stroke-linejoin:miter;stroke-miterlimit:4;stroke-dasharray:none;stroke-dashoffset:0;stroke-opacity:1"
       d="M 9.7124452,-12.728706 C 28.117402,-0.46222939 46.52236,11.804249 64.927318,24.070726 86.248126,13.881113 107.56895,3.6914986 128.88977,-6.498115 114.66011,-27.397752 100.43045,-48.29739 86.200797,-69.197028 60.704681,-50.374254 35.208561,-31.55148 9.7124452,-12.728706 Z"
       id="path5208-8-2-6"
       inkscape:connector-curvature="0" />
    <path
       style="fill:#5800ff;fill-opacity:0.42690059;fill-rule:evenodd;stroke:none;stroke-width:5.48159122;stroke-linecap:butt;stroke-linejoin:miter;stroke-miterlimit:4;stroke-dasharray:none;stroke-dashoffset:0;stroke-opacity:1"
       d="M 49.024058,25.119073 63.425638,16.370184 19.7678,-70.214962 -16.852257,-32.912566 Z"
       id="path5204"
       inkscape:connector-curvature="0"
       sodipodi:nodetypes="ccccc" />
    <path
       style="fill:#48beb7;fill-opacity:0.33333333;fill-rule:evenodd;stroke:none;stroke-width:5.36208963;stroke-linecap:butt;stroke-linejoin:miter;stroke-miterlimit:4;stroke-dasharray:none;stroke-dashoffset:0;stroke-opacity:1"
       d="M 2.8485154,-30.627672 C 27.838835,-12.75846 52.829157,5.1107516 77.819477,22.979965 106.76895,8.1362286 135.71843,-6.7075092 164.66791,-21.551245 145.34685,-51.99683 126.02577,-82.442415 106.70469,-112.888 72.085964,-85.46789 37.46724,-58.047782 2.8485154,-30.627672 Z"
       id="path5208"
       inkscape:connector-curvature="0" />
    <path
       style="fill:#edc25f;fill-opacity:0.30653268;fill-rule:evenodd;stroke:none;stroke-width:4.17905521;stroke-linecap:butt;stroke-linejoin:miter;stroke-miterlimit:4;stroke-dasharray:none;stroke-dashoffset:0;stroke-opacity:1"
       d="M 38.707688,-5.9774707 C 54.110804,7.6727495 69.513918,21.322972 84.917034,34.973192 102.77166,25.845669 120.62627,16.718144 138.48088,7.5906189 125.09258,-14.947746 111.70429,-37.486115 98.31599,-60.024481 78.44656,-42.008812 58.577115,-23.99314 38.707688,-5.9774707 Z"
       id="path5210-1"
       inkscape:connector-curvature="0" />
    <path
       style="fill:#a26673;fill-opacity:0.7017544;fill-rule:evenodd;stroke:none;stroke-width:5.36208963;stroke-linecap:butt;stroke-linejoin:miter;stroke-miterlimit:4;stroke-dasharray:none;stroke-dashoffset:0;stroke-opacity:1"
       d="M -19.466232,-22.314313 C 6.3007678,-8.8805896 32.067767,4.5531356 57.834766,17.98686 87.702726,9.0041006 117.5707,0.02134061 147.43866,-8.9614186 125.04215,-31.142317 102.64562,-53.323218 80.249097,-75.504118 47.010653,-57.774183 13.77221,-40.044247 -19.466232,-22.314313 Z"
       id="path5210"
       inkscape:connector-curvature="0" />
    <path
       style="fill:#e99400;fill-opacity:0.67251461;fill-rule:evenodd;stroke:none;stroke-width:5.36208963;stroke-linecap:butt;stroke-linejoin:miter;stroke-miterlimit:4;stroke-dasharray:none;stroke-dashoffset:0;stroke-opacity:1"
       d="M 34.647183,-16.671339 C 53.05214,-4.4048626 71.457099,7.8616156 89.862059,20.128093 111.18288,9.9384796 132.50368,-0.25113539 153.82449,-10.440748 139.59484,-31.340385 125.36521,-52.240023 111.13555,-73.13966 85.639424,-54.316887 60.143301,-35.494112 34.647183,-16.671339 Z"
       id="path5208-8-2"
       inkscape:connector-curvature="0" />
    <g
       transform="matrix(6.6920489,0,0,-4.1814095,-761.34505,1264.4726)"
       style="font-style:normal;font-weight:bold;font-size:34.65339279px;line-height:125%;font-family:Sans;-inkscape-font-specification:'Sans Bold';letter-spacing:0px;word-spacing:0px;fill:#000000;fill-opacity:1;stroke:none"
       id="text5198"
       inkscape:export-filename="D:\wsp\neba-pages\images\background.png"
       inkscape:export-xdpi="853.51001"
       inkscape:export-ydpi="853.51001" />
    <path
       style="fill:#00d180;fill-opacity:0.67251461;fill-rule:evenodd;stroke:none;stroke-width:5.36208963;stroke-linecap:butt;stroke-linejoin:miter;stroke-miterlimit:4;stroke-dasharray:none;stroke-dashoffset:0;stroke-opacity:1"
       d="m 28.544036,-25.480914 c 29.787553,16.4270163 59.575102,32.8540336 89.362674,49.281053 24.15224,-13.401541 48.30448,-26.803085 72.45672,-40.204625 -19.32106,-30.445585 -38.64214,-60.89117 -57.9632,-91.336754 -34.618737,27.420108 -69.237468,54.840217 -103.856194,82.260326 z"
       id="path5208-8"
       inkscape:connector-curvature="0" />
    <path
       style="fill:#4483b8;fill-opacity:0.57254902;fill-rule:evenodd;stroke:none;stroke-width:5.36208963;stroke-linecap:butt;stroke-linejoin:miter;stroke-miterlimit:4;stroke-dasharray:none;stroke-dashoffset:0;stroke-opacity:1"
       d="M 66.511263,-20.430852 C 86.880087,-6.0789468 107.24892,8.2729596 127.61775,22.624867 151.22838,13.028144 174.83902,3.4314206 198.44965,-6.1653023 180.7452,-29.862245 163.04075,-53.559188 145.33629,-77.256131 c -26.275,18.94176 -52.550021,37.883519 -78.825027,56.825279 z"
       id="path5210-2"
       inkscape:connector-curvature="0" />
    <path
       style="fill:#00ff68;fill-opacity:0.67251461;fill-rule:evenodd;stroke:none;stroke-width:5.36208963;stroke-linecap:butt;stroke-linejoin:miter;stroke-miterlimit:4;stroke-dasharray:none;stroke-dashoffset:0;stroke-opacity:1"
       d="M 68.816399,-31.566226 C 93.806733,-13.697014 118.79707,4.1721986 143.7874,22.041411 172.73686,7.1976746 201.68633,-7.6460626 230.63581,-22.489798 211.31474,-52.935383 191.99367,-83.380968 172.6726,-113.82655 138.05387,-86.406444 103.43514,-58.986335 68.816399,-31.566226 Z"
       id="path5208-8-6"
       inkscape:connector-curvature="0" />
    <path
       style="fill:#6dfff7;fill-opacity:0.30653265;fill-rule:evenodd;stroke:none;stroke-width:4.50162792;stroke-linecap:butt;stroke-linejoin:miter;stroke-miterlimit:4;stroke-dasharray:none;stroke-dashoffset:0;stroke-opacity:1"
       d="M 36.83289,-40.504904 C 62.241306,-13.404577 87.649722,13.69575 113.05813,40.796078 131.20157,28.970463 149.34499,17.144848 167.48842,5.319234 147.48286,-38.369262 127.47729,-82.057769 107.47171,-125.74625 83.92544,-97.332467 60.379164,-68.918688 36.83289,-40.504904 Z"
       id="path5208-1"
       inkscape:connector-curvature="0" />
    <path
       style="fill:#ffdc20;fill-opacity:0.42690059;fill-rule:evenodd;stroke:none;stroke-width:4.98692417;stroke-linecap:butt;stroke-linejoin:miter;stroke-miterlimit:4;stroke-dasharray:none;stroke-dashoffset:0;stroke-opacity:1"
       d="m 106.63903,-18.902379 c 14.12343,13.7407228 28.24688,27.4814486 42.37029,41.222167 l 49.55604,-40.767264 c -13.40985,-16.675973 -9.02993,-29.524583 -22.43977,-46.200557 -23.16218,15.248552 -46.32435,30.497103 -69.48656,45.745654 z"
       id="path5204-8-1"
       inkscape:connector-curvature="0"
       sodipodi:nodetypes="ccccc" />
    <path
       style="fill:#00d2ff;fill-opacity:0.4321608;fill-rule:evenodd;stroke:none;stroke-width:6.05724096;stroke-linecap:butt;stroke-linejoin:miter;stroke-miterlimit:4;stroke-dasharray:none;stroke-dashoffset:0;stroke-opacity:1"
       d="M 22.437107,24.242744 63.87738,12.921761 C 68.189963,-0.91921963 110.68053,-44.713468 114.99312,-58.554448 74.645172,-41.48369 56.103,-31.137043 15.755058,-14.066286 1.8644874,5.8917538 7.7441735,9.9425448 22.437107,24.242744 Z"
       id="path5208-8-2-6-2-7"
       inkscape:connector-curvature="0"
       sodipodi:nodetypes="ccccc" />
  </g>
</svg>
