<?xml version="1.0" encoding="UTF-8" standalone="no"?>
<svg
   xmlns:dc="http://purl.org/dc/elements/1.1/"
   xmlns:cc="http://creativecommons.org/ns#"
   xmlns:rdf="http://www.w3.org/1999/02/22-rdf-syntax-ns#"
   xmlns:svg="http://www.w3.org/2000/svg"
   xmlns="http://www.w3.org/2000/svg"
   xmlns:sodipodi="http://sodipodi.sourceforge.net/DTD/sodipodi-0.dtd"
   xmlns:inkscape="http://www.inkscape.org/namespaces/inkscape"
   version="1.1"
   preserveAspectRatio="xMidYMid"
   xml:space="preserve"
   width="452.31497pt"
   height="150.40184pt"
   viewBox="-0.80189 -1.973819 452.31497 150.40184"
   id="svg5878"
   inkscape:version="0.91 r13725"
   sodipodi:docname="abstract-registration-process.svg"><metadata
     id="metadata5974"><rdf:RDF><cc:Work
         rdf:about=""><dc:format>image/svg+xml</dc:format><dc:type
           rdf:resource="http://purl.org/dc/dcmitype/StillImage" /><dc:title></dc:title></cc:Work></rdf:RDF></metadata><defs
     id="defs5972" /><sodipodi:namedview
     pagecolor="#ffffff"
     bordercolor="#666666"
     borderopacity="1"
     objecttolerance="10"
     gridtolerance="10"
     guidetolerance="10"
     inkscape:pageopacity="0"
     inkscape:pageshadow="2"
     inkscape:window-width="1920"
     inkscape:window-height="1018"
     id="namedview5970"
     showgrid="false"
     fit-margin-top="0"
     fit-margin-left="0"
     fit-margin-right="0"
     fit-margin-bottom="0"
     inkscape:zoom="0.23173306"
     inkscape:cx="71520.715"
     inkscape:cy="-290.07311"
     inkscape:window-x="-8"
     inkscape:window-y="-8"
     inkscape:window-maximized="1"
     inkscape:current-layer="svg5878" /><g
     transform="matrix(1,0,0,-1,-68.555506,791.09506)"
     id="g5880"><g
       stroke-miterlimit="3"
       letter-spacing="normal"
       font-weight="normal"
       font-style="normal"
       baseline-shift="0"
       id="g5882"
       style="font-style:normal;font-weight:normal;letter-spacing:normal;baseline-shift:0px;fill:none;fill-rule:evenodd;stroke:#000000;stroke-width:1;stroke-linecap:round;stroke-linejoin:round;stroke-miterlimit:3"><g
         transform="matrix(0.75,0,0,0.75,0,816.45001)"
         id="g5884"><g
           transform="scale(0.959748,-0.959436)"
           font-size="18"
           id="g5886"
           style="font-size:18px;font-family:Roboto,sans-serif"><path
             d="m 491,33 0,208 m 0,0 231,0 m 0,0 0,-208 m 0,0 -231,0"
             id="path5888"
             inkscape:connector-curvature="0" /><text
             transform="translate(592,37)"
             font-size="10"
             id="text5890"
             style="font-size:10px;fill:#000000;stroke:none"><tspan
               dx="0"
               x="0"
               y="9"
               id="tspan5892">NEBA</tspan></text>
<path
             d="m 112,56.5 c 0,-2.49 2.01,-4.5 4.5,-4.5 2.49,0 4.5,2.01 4.5,4.5 0,2.49 -2.01,4.5 -4.5,4.5 -2.49,0 -4.5,-2.01 -4.5,-4.5"
             id="path5894"
             inkscape:connector-curvature="0"
             style="fill:#dfdfdf;stroke:none" /><path
             d="m 110,54.5 c 0,-2.49 2.01,-4.5 4.5,-4.5 2.49,0 4.5,2.01 4.5,4.5 0,2.49 -2.01,4.5 -4.5,4.5 -2.49,0 -4.5,-2.01 -4.5,-4.5"
             id="path5896"
             inkscape:connector-curvature="0"
             style="fill:#f8e2c1;stroke:none" /><path
             d="m 110,54.5 c 0,-2.49 2.01,-4.5 4.5,-4.5 2.49,0 4.5,2.01 4.5,4.5 0,2.49 -2.01,4.5 -4.5,4.5 -2.49,0 -4.5,-2.01 -4.5,-4.5 m 5,5.5 0,10 m -5,-5 10,0 m -10,15 5,-10 m 5,10 -5,-10"
             id="path5898"
             inkscape:connector-curvature="0" /><text
             transform="translate(94,85)"
             font-size="10"
             id="text5900"
             style="font-size:10px;fill:#000000;stroke:none"><tspan
               dx="0"
               x="0"
               y="9"
               id="tspan5902">Anything</tspan></text>
<path
             d="m 115,98 0,133"
             id="path5904"
             inkscape:connector-curvature="0"
             style="stroke-dasharray:7, 4" /><path
             d="m 110,141 c 0,-5 0,-5 3.5,-5 l 2,0 c 3.5,0 3.5,0 3.5,5 l 0,39 c 0,5 0,5 -3.5,5 l -2,0 c -3.5,0 -3.5,0 -3.5,-5 l 0,-39"
             id="path5906"
             inkscape:connector-curvature="0"
             style="fill:#f8e2c1;stroke:none" /><path
             d="m 110,141 c 0,-5 0,-5 3.5,-5 l 2,0 c 3.5,0 3.5,0 3.5,5 l 0,39 c 0,5 0,5 -3.5,5 l -2,0 c -3.5,0 -3.5,0 -3.5,-5 l 0,-39"
             id="path5908"
             inkscape:connector-curvature="0" /><path
             d="m 258,58 c 0,-5 0,-5 5,-5 l 110,0 c 5,0 5,0 5,5 l 0,39 c 0,5 0,5 -5,5 l -110,0 c -5,0 -5,0 -5,-5 l 0,-39"
             id="path5910"
             inkscape:connector-curvature="0"
             style="fill:#dfdfdf;stroke:none" /><path
             d="m 255,55 c 0,-5 0,-5 5,-5 l 110,0 c 5,0 5,0 5,5 l 0,39 c 0,5 0,5 -5,5 l -110,0 c -5,0 -5,0 -5,-5 l 0,-39"
             id="path5912"
             inkscape:connector-curvature="0"
             style="fill:#c8eef0;stroke:none" /><path
             d="m 255,55 c 0,-5 0,-5 5,-5 l 110,0 c 5,0 5,0 5,5 l 0,39 c 0,5 0,5 -5,5 l -110,0 c -5,0 -5,0 -5,-5 l 0,-39 m 0,0 c 0,-5 0,-5 5,-5 l 110,0 c 5,0 5,0 5,5 l 0,39 c 0,5 0,5 -5,5 l -110,0 c -5,0 -5,0 -5,-5 l 0,-39"
             id="path5914"
             inkscape:connector-curvature="0" /><rect
             x="255"
             y="50"
             width="120"
             height="49"
             id="rect5916" /><text
             transform="translate(272,53)"
             font-size="10"
             id="text5918"
             style="font-size:10px;fill:#000000;stroke:none"><tspan
               dx="0"
               x="0"
               y="9"
               id="tspan5920">:ActivationHandler</tspan></text>
<path
             d="m 315,100 0,128"
             id="path5922"
             inkscape:connector-curvature="0"
             style="stroke-dasharray:7, 4" /><path
             d="m 310,141 c 0,-5 0,-5 3.5,-5 l 2,0 c 3.5,0 3.5,0 3.5,5 l 0,39 c 0,5 0,5 -3.5,5 l -2,0 c -3.5,0 -3.5,0 -3.5,-5 l 0,-39"
             id="path5924"
             inkscape:connector-curvature="0"
             style="fill:#c8eef0;stroke:none" /><path
             d="m 310,141 c 0,-5 0,-5 3.5,-5 l 2,0 c 3.5,0 3.5,0 3.5,5 l 0,39 c 0,5 0,5 -3.5,5 l -2,0 c -3.5,0 -3.5,0 -3.5,-5 l 0,-39"
             id="path5926"
             inkscape:connector-curvature="0" /><path
             d="m 516,58 c 0,-5 0,-5 5,-5 l 178,0 c 5,0 5,0 5,5 l 0,39 c 0,5 0,5 -5,5 l -178,0 c -5,0 -5,0 -5,-5 l 0,-39"
             id="path5928"
             inkscape:connector-curvature="0"
             style="fill:#dfdfdf;stroke:none" /><path
             d="m 513,55 c 0,-5 0,-5 5,-5 l 178,0 c 5,0 5,0 5,5 l 0,39 c 0,5 0,5 -5,5 l -178,0 c -5,0 -5,0 -5,-5 l 0,-39"
             id="path5930"
             inkscape:connector-curvature="0"
             style="fill:#c8eef0;stroke:none" /><path
             d="m 513,55 c 0,-5 0,-5 5,-5 l 178,0 c 5,0 5,0 5,5 l 0,39 c 0,5 0,5 -5,5 l -178,0 c -5,0 -5,0 -5,-5 l 0,-39 m 0,0 c 0,-5 0,-5 5,-5 l 178,0 c 5,0 5,0 5,5 l 0,39 c 0,5 0,5 -5,5 l -178,0 c -5,0 -5,0 -5,-5 l 0,-39"
             id="path5932"
             inkscape:connector-curvature="0" /><rect
             x="513"
             y="50"
             width="188"
             height="49"
             id="rect5934" /><text
             transform="translate(532,53)"
             font-size="10"
             id="text5936"
             style="font-size:10px;fill:#000000;stroke:none"><tspan
               dx="0"
               x="0"
               y="9"
               id="tspan5938">:SlingBeanFactoryPostProcessor</tspan></text>
<path
             d="m 607,100 0,128"
             id="path5940"
             inkscape:connector-curvature="0"
             style="stroke-dasharray:7, 4" /><path
             d="m 602,176.5 c 0,-5.5 0,-5.5 3.5,-5.5 l 2,0 c 3.5,0 3.5,0 3.5,5.5 l 0,-2 c 0,5.5 0,5.5 -3.5,5.5 l -2,0 c -3.5,0 -3.5,0 -3.5,-5.5 l 0,2"
             id="path5942"
             inkscape:connector-curvature="0"
             style="fill:#c8eef0;stroke:none" /><path
             d="m 602,176.5 c 0,-5.5 0,-5.5 3.5,-5.5 l 2,0 c 3.5,0 3.5,0 3.5,5.5 l 0,-2 c 0,5.5 0,5.5 -3.5,5.5 l -2,0 c -3.5,0 -3.5,0 -3.5,-5.5 l 0,2"
             id="path5944"
             inkscape:connector-curvature="0" /><path
             d="m 120,136 190,0"
             id="path5946"
             inkscape:connector-curvature="0" /><path
             d="m 298,132 0,4 0,4 12,-4 -12,-4"
             id="path5948"
             inkscape:connector-curvature="0"
             style="fill:#000000" /><path
             d="m 320,171 282,0"
             id="path5950"
             inkscape:connector-curvature="0" /><path
             d="m 590,167 0,4 0,4 12,-4 -12,-4"
             id="path5952"
             inkscape:connector-curvature="0"
             style="fill:#000000" /><g
             transform="matrix(1,0,0,-1,171,122)"
             id="g5954"><rect
               x="0"
               width="93"
               y="-11"
               height="11"
               id="rect5956"
               style="fill:#ffffff;stroke:none" /></g><text
             transform="translate(171,122)"
             font-size="10"
             id="text5958"
             style="font-size:10px;fill:#000000;stroke:none"><tspan
               dx="0"
               x="0"
               y="9"
               id="tspan5960">activate(b: Bundle)</tspan></text>
<g
             transform="matrix(1,0,0,-1,348,157)"
             id="g5962"><rect
               x="0"
               width="237"
               y="-11"
               height="11"
               id="rect5964"
               style="fill:#ffffff;stroke:none" /></g><text
             transform="translate(348,157)"
             font-size="10"
             id="text5966"
             style="font-size:10px;fill:#000000;stroke:none"><tspan
               dx="0"
               x="0"
               y="9"
               id="tspan5968">postProcess(bc: BundleContext, bf: BeanFactory)</tspan></text>
</g></g></g></g></svg>