<?xml version="1.0" encoding="UTF-8" standalone="no"?>
<svg
   xmlns:dc="http://purl.org/dc/elements/1.1/"
   xmlns:cc="http://creativecommons.org/ns#"
   xmlns:rdf="http://www.w3.org/1999/02/22-rdf-syntax-ns#"
   xmlns:svg="http://www.w3.org/2000/svg"
   xmlns="http://www.w3.org/2000/svg"
   xmlns:sodipodi="http://sodipodi.sourceforge.net/DTD/sodipodi-0.dtd"
   xmlns:inkscape="http://www.inkscape.org/namespaces/inkscape"
   version="1.1"
   preserveAspectRatio="xMidYMid"
   xml:space="preserve"
   width="489.83142pt"
   height="214.12634pt"
   viewBox="-0.80189 -1.973819 489.83142 214.12634"
   id="svg2"
   inkscape:version="0.91 r13725"
   sodipodi:docname="project-technologies.svg"><metadata
     id="metadata342"><rdf:RDF><cc:Work
         rdf:about=""><dc:format>image/svg+xml</dc:format><dc:type
           rdf:resource="http://purl.org/dc/dcmitype/StillImage" /><dc:title></dc:title></cc:Work></rdf:RDF></metadata><defs
     id="defs340" /><sodipodi:namedview
     pagecolor="#ffffff"
     bordercolor="#666666"
     borderopacity="1"
     objecttolerance="10"
     gridtolerance="10"
     guidetolerance="10"
     inkscape:pageopacity="0"
     inkscape:pageshadow="2"
     inkscape:window-width="836"
     inkscape:window-height="480"
     id="namedview338"
     showgrid="false"
     fit-margin-top="0"
     fit-margin-left="0"
     fit-margin-right="0"
     fit-margin-bottom="0"
     inkscape:zoom="0.23173306"
     inkscape:cx="347.75882"
     inkscape:cy="-121.36981"
     inkscape:window-x="0"
     inkscape:window-y="0"
     inkscape:window-maximized="0"
     inkscape:current-layer="svg2" /><g
     transform="matrix(1,0,0,-1,-147.28339,719.85692)"
     id="g4"><g
       stroke-miterlimit="3"
       letter-spacing="normal"
       font-weight="normal"
       font-style="normal"
       baseline-shift="0"
       id="g6"
       style="font-style:normal;font-weight:normal;letter-spacing:normal;baseline-shift:0px;fill:none;fill-rule:evenodd;stroke:#000000;stroke-width:1;stroke-linecap:round;stroke-linejoin:round;stroke-miterlimit:3"><g
         transform="matrix(0.75,0,0,0.75,0,816.45001)"
         id="g8"><g
           transform="scale(0.959748,-0.959436)"
           font-size="18"
           id="g10"
           style="font-size:18px;font-family:Roboto,sans-serif"><path
             d="m 446,132 0,106"
             id="path12"
             inkscape:connector-curvature="0"
             style="stroke-dasharray:7, 4" /><path
             d="m 446,242 190,0"
             id="path14"
             inkscape:connector-curvature="0"
             style="stroke-dasharray:7, 4" /><path
             d="m 636,242 0,-4"
             id="path16"
             inkscape:connector-curvature="0" /><path
             d="m 636,234 0,-102"
             id="path18"
             inkscape:connector-curvature="0"
             style="stroke-dasharray:7, 4" /><path
             d="m 636,132 -4,0"
             id="path20"
             inkscape:connector-curvature="0" /><path
             d="m 628,132 -182,0"
             id="path22"
             inkscape:connector-curvature="0"
             style="stroke-dasharray:7, 4" /><text
             transform="translate(507,136)"
             font-size="10"
             id="text24"
             style="font-size:10px;fill:#000000;stroke:none"><tspan
               dx="0"
               x="0"
               y="9"
               id="tspan26">System border</tspan></text>
<path
             d="m 345,306 c 0,-5 0,-5 5,-5 l 103,0 c 5,0 5,0 5,5 l 0,49 c 0,5 0,5 -5,5 l -103,0 c -5,0 -5,0 -5,-5 l 0,-49"
             id="path28"
             inkscape:connector-curvature="0"
             style="fill:#dfdfdf;stroke:none" /><path
             d="m 342,303 c 0,-5 0,-5 5,-5 l 103,0 c 5,0 5,0 5,5 l 0,49 c 0,5 0,5 -5,5 l -103,0 c -5,0 -5,0 -5,-5 l 0,-49"
             id="path30"
             inkscape:connector-curvature="0"
             style="fill:#fee6e6;stroke:none" /><path
             d="m 342,303 c 0,-5 0,-5 5,-5 l 103,0 c 5,0 5,0 5,5 l 0,49 c 0,5 0,5 -5,5 l -103,0 c -5,0 -5,0 -5,-5 l 0,-49 m 0,0 c 0,-5 0,-5 5,-5 l 103,0 c 5,0 5,0 5,5 l 0,49 c 0,5 0,5 -5,5 l -103,0 c -5,0 -5,0 -5,-5 l 0,-49"
             id="path32"
             inkscape:connector-curvature="0" /><rect
             x="342"
             y="298"
             width="113"
             height="59"
             id="rect34" /><text
             transform="translate(371,307)"
             font-size="10"
             font-weight="bold"
             id="text36"
             style="font-weight:bold;font-size:10px;fill:#000000;stroke:none"><tspan
               dx="0"
               x="0"
               y="9"
               id="tspan38">Spring </tspan></text>
<text
             transform="translate(360,319)"
             font-size="10"
             font-weight="bold"
             id="text40"
             style="font-weight:bold;font-size:10px;fill:#000000;stroke:none"><tspan
               dx="0"
               x="0"
               y="9"
               id="tspan42">Framework</tspan></text>
<path
             d="m 440,308 c 0,-5 0,-5 4,-5 l 2,0 c 4,0 4,0 4,5 l 0,6 c 0,5 0,5 -4,5 l -2,0 c -4,0 -4,0 -4,-5 l 0,-6"
             id="path44"
             inkscape:connector-curvature="0"
             style="fill:#fee6e6;stroke:none" /><path
             d="m 440,308 c 0,-5 0,-5 4,-5 l 2,0 c 4,0 4,0 4,5 l 0,6 c 0,5 0,5 -4,5 l -2,0 c -4,0 -4,0 -4,-5 l 0,-6"
             id="path46"
             inkscape:connector-curvature="0" /><path
             d="m 437,308 c 0,-3 0,-3 2,-3 l 2,0 c 2,0 2,0 2,3 l 0,-2 c 0,3 0,3 -2,3 l -2,0 c -2,0 -2,0 -2,-3 l 0,2"
             id="path48"
             inkscape:connector-curvature="0"
             style="fill:#fee6e6;stroke:none" /><path
             d="m 437,308 c 0,-3 0,-3 2,-3 l 2,0 c 2,0 2,0 2,3 l 0,-2 c 0,3 0,3 -2,3 l -2,0 c -2,0 -2,0 -2,-3 l 0,2"
             id="path50"
             inkscape:connector-curvature="0" /><path
             d="m 437,315 c 0,-3 0,-3 2,-3 l 2,0 c 2,0 2,0 2,3 l 0,-2 c 0,3 0,3 -2,3 l -2,0 c -2,0 -2,0 -2,-3 l 0,2"
             id="path52"
             inkscape:connector-curvature="0"
             style="fill:#fee6e6;stroke:none" /><path
             d="m 437,315 c 0,-3 0,-3 2,-3 l 2,0 c 2,0 2,0 2,3 l 0,-2 c 0,3 0,3 -2,3 l -2,0 c -2,0 -2,0 -2,-3 l 0,2"
             id="path54"
             inkscape:connector-curvature="0" /><path
             d="m 491,306 c 0,-5 0,-5 5,-5 l 99,0 c 5,0 5,0 5,5 l 0,49 c 0,5 0,5 -5,5 l -99,0 c -5,0 -5,0 -5,-5 l 0,-49"
             id="path56"
             inkscape:connector-curvature="0"
             style="fill:#dfdfdf;stroke:none" /><path
             d="m 488,303 c 0,-5 0,-5 5,-5 l 99,0 c 5,0 5,0 5,5 l 0,49 c 0,5 0,5 -5,5 l -99,0 c -5,0 -5,0 -5,-5 l 0,-49"
             id="path58"
             inkscape:connector-curvature="0"
             style="fill:#fee6e6;stroke:none" /><path
             d="m 488,303 c 0,-5 0,-5 5,-5 l 99,0 c 5,0 5,0 5,5 l 0,49 c 0,5 0,5 -5,5 l -99,0 c -5,0 -5,0 -5,-5 l 0,-49 m 0,0 c 0,-5 0,-5 5,-5 l 99,0 c 5,0 5,0 5,5 l 0,49 c 0,5 0,5 -5,5 l -99,0 c -5,0 -5,0 -5,-5 l 0,-49"
             id="path60"
             inkscape:connector-curvature="0" /><rect
             x="488"
             y="298"
             width="109"
             height="59"
             id="rect62" /><text
             transform="translate(490,307)"
             font-size="10"
             font-weight="bold"
             id="text64"
             style="font-weight:bold;font-size:10px;fill:#000000;stroke:none"><tspan
               dx="0"
               x="0"
               y="9"
               id="tspan66">Gemini Blueprint</tspan></text>
<path
             d="m 582,308 c 0,-5 0,-5 4,-5 l 2,0 c 4,0 4,0 4,5 l 0,6 c 0,5 0,5 -4,5 l -2,0 c -4,0 -4,0 -4,-5 l 0,-6"
             id="path68"
             inkscape:connector-curvature="0"
             style="fill:#fee6e6;stroke:none" /><path
             d="m 582,308 c 0,-5 0,-5 4,-5 l 2,0 c 4,0 4,0 4,5 l 0,6 c 0,5 0,5 -4,5 l -2,0 c -4,0 -4,0 -4,-5 l 0,-6"
             id="path70"
             inkscape:connector-curvature="0" /><path
             d="m 579,308 c 0,-3 0,-3 2,-3 l 2,0 c 2,0 2,0 2,3 l 0,-2 c 0,3 0,3 -2,3 l -2,0 c -2,0 -2,0 -2,-3 l 0,2"
             id="path72"
             inkscape:connector-curvature="0"
             style="fill:#fee6e6;stroke:none" /><path
             d="m 579,308 c 0,-3 0,-3 2,-3 l 2,0 c 2,0 2,0 2,3 l 0,-2 c 0,3 0,3 -2,3 l -2,0 c -2,0 -2,0 -2,-3 l 0,2"
             id="path74"
             inkscape:connector-curvature="0" /><path
             d="m 579,315 c 0,-3 0,-3 2,-3 l 2,0 c 2,0 2,0 2,3 l 0,-2 c 0,3 0,3 -2,3 l -2,0 c -2,0 -2,0 -2,-3 l 0,2"
             id="path76"
             inkscape:connector-curvature="0"
             style="fill:#fee6e6;stroke:none" /><path
             d="m 579,315 c 0,-3 0,-3 2,-3 l 2,0 c 2,0 2,0 2,3 l 0,-2 c 0,3 0,3 -2,3 l -2,0 c -2,0 -2,0 -2,-3 l 0,2"
             id="path78"
             inkscape:connector-curvature="0" /><path
             d="m 633,306 c 0,-5 0,-5 5,-5 l 99,0 c 5,0 5,0 5,5 l 0,49 c 0,5 0,5 -5,5 l -99,0 c -5,0 -5,0 -5,-5 l 0,-49"
             id="path80"
             inkscape:connector-curvature="0"
             style="fill:#dfdfdf;stroke:none" /><path
             d="m 630,303 c 0,-5 0,-5 5,-5 l 99,0 c 5,0 5,0 5,5 l 0,49 c 0,5 0,5 -5,5 l -99,0 c -5,0 -5,0 -5,-5 l 0,-49"
             id="path82"
             inkscape:connector-curvature="0"
             style="fill:#fee6e6;stroke:none" /><path
             d="m 630,303 c 0,-5 0,-5 5,-5 l 99,0 c 5,0 5,0 5,5 l 0,49 c 0,5 0,5 -5,5 l -99,0 c -5,0 -5,0 -5,-5 l 0,-49 m 0,0 c 0,-5 0,-5 5,-5 l 99,0 c 5,0 5,0 5,5 l 0,49 c 0,5 0,5 -5,5 l -99,0 c -5,0 -5,0 -5,-5 l 0,-49"
             id="path84"
             inkscape:connector-curvature="0" /><rect
             x="630"
             y="298"
             width="109"
             height="59"
             id="rect86" /><text
             transform="translate(654,307)"
             font-size="10"
             font-weight="bold"
             id="text88"
             style="font-weight:bold;font-size:10px;fill:#000000;stroke:none"><tspan
               dx="0"
               x="0"
               y="9"
               id="tspan90">JCR API</tspan></text>
<path
             d="m 724,308 c 0,-5 0,-5 4,-5 l 2,0 c 4,0 4,0 4,5 l 0,6 c 0,5 0,5 -4,5 l -2,0 c -4,0 -4,0 -4,-5 l 0,-6"
             id="path92"
             inkscape:connector-curvature="0"
             style="fill:#fee6e6;stroke:none" /><path
             d="m 724,308 c 0,-5 0,-5 4,-5 l 2,0 c 4,0 4,0 4,5 l 0,6 c 0,5 0,5 -4,5 l -2,0 c -4,0 -4,0 -4,-5 l 0,-6"
             id="path94"
             inkscape:connector-curvature="0" /><path
             d="m 721,308 c 0,-3 0,-3 2,-3 l 2,0 c 2,0 2,0 2,3 l 0,-2 c 0,3 0,3 -2,3 l -2,0 c -2,0 -2,0 -2,-3 l 0,2"
             id="path96"
             inkscape:connector-curvature="0"
             style="fill:#fee6e6;stroke:none" /><path
             d="m 721,308 c 0,-3 0,-3 2,-3 l 2,0 c 2,0 2,0 2,3 l 0,-2 c 0,3 0,3 -2,3 l -2,0 c -2,0 -2,0 -2,-3 l 0,2"
             id="path98"
             inkscape:connector-curvature="0" /><path
             d="m 721,315 c 0,-3 0,-3 2,-3 l 2,0 c 2,0 2,0 2,3 l 0,-2 c 0,3 0,3 -2,3 l -2,0 c -2,0 -2,0 -2,-3 l 0,2"
             id="path100"
             inkscape:connector-curvature="0"
             style="fill:#fee6e6;stroke:none" /><path
             d="m 721,315 c 0,-3 0,-3 2,-3 l 2,0 c 2,0 2,0 2,3 l 0,-2 c 0,3 0,3 -2,3 l -2,0 c -2,0 -2,0 -2,-3 l 0,2"
             id="path102"
             inkscape:connector-curvature="0" /><path
             d="m 489,166 c 0,-5 0,-5 5,-5 l 99,0 c 5,0 5,0 5,5 l 0,49 c 0,5 0,5 -5,5 l -99,0 c -5,0 -5,0 -5,-5 l 0,-49"
             id="path104"
             inkscape:connector-curvature="0"
             style="fill:#dfdfdf;stroke:none" /><path
             d="m 486,163 c 0,-5 0,-5 5,-5 l 99,0 c 5,0 5,0 5,5 l 0,49 c 0,5 0,5 -5,5 l -99,0 c -5,0 -5,0 -5,-5 l 0,-49"
             id="path106"
             inkscape:connector-curvature="0"
             style="fill:#fee6e6;stroke:none" /><path
             d="m 486,163 c 0,-5 0,-5 5,-5 l 99,0 c 5,0 5,0 5,5 l 0,49 c 0,5 0,5 -5,5 l -99,0 c -5,0 -5,0 -5,-5 l 0,-49 m 0,0 c 0,-5 0,-5 5,-5 l 99,0 c 5,0 5,0 5,5 l 0,49 c 0,5 0,5 -5,5 l -99,0 c -5,0 -5,0 -5,-5 l 0,-49"
             id="path108"
             inkscape:connector-curvature="0" /><rect
             x="486"
             y="158"
             width="109"
             height="59"
             id="rect110" /><text
             transform="translate(499,167)"
             font-size="10"
             font-weight="bold"
             id="text112"
             style="font-weight:bold;font-size:10px;fill:#000000;stroke:none"><tspan
               dx="0"
               x="0"
               y="9"
               id="tspan114">NEBA CORE</tspan></text>
<path
             d="m 580,168 c 0,-5 0,-5 4,-5 l 2,0 c 4,0 4,0 4,5 l 0,6 c 0,5 0,5 -4,5 l -2,0 c -4,0 -4,0 -4,-5 l 0,-6"
             id="path116"
             inkscape:connector-curvature="0"
             style="fill:#fee6e6;stroke:none" /><path
             d="m 580,168 c 0,-5 0,-5 4,-5 l 2,0 c 4,0 4,0 4,5 l 0,6 c 0,5 0,5 -4,5 l -2,0 c -4,0 -4,0 -4,-5 l 0,-6"
             id="path118"
             inkscape:connector-curvature="0" /><path
             d="m 577,168 c 0,-3 0,-3 2,-3 l 2,0 c 2,0 2,0 2,3 l 0,-2 c 0,3 0,3 -2,3 l -2,0 c -2,0 -2,0 -2,-3 l 0,2"
             id="path120"
             inkscape:connector-curvature="0"
             style="fill:#fee6e6;stroke:none" /><path
             d="m 577,168 c 0,-3 0,-3 2,-3 l 2,0 c 2,0 2,0 2,3 l 0,-2 c 0,3 0,3 -2,3 l -2,0 c -2,0 -2,0 -2,-3 l 0,2"
             id="path122"
             inkscape:connector-curvature="0" /><path
             d="m 577,175 c 0,-3 0,-3 2,-3 l 2,0 c 2,0 2,0 2,3 l 0,-2 c 0,3 0,3 -2,3 l -2,0 c -2,0 -2,0 -2,-3 l 0,2"
             id="path124"
             inkscape:connector-curvature="0"
             style="fill:#fee6e6;stroke:none" /><path
             d="m 577,175 c 0,-3 0,-3 2,-3 l 2,0 c 2,0 2,0 2,3 l 0,-2 c 0,3 0,3 -2,3 l -2,0 c -2,0 -2,0 -2,-3 l 0,2"
             id="path126"
             inkscape:connector-curvature="0" /><path
             d="m 775,306 c 0,-5 0,-5 5,-5 l 99,0 c 5,0 5,0 5,5 l 0,49 c 0,5 0,5 -5,5 l -99,0 c -5,0 -5,0 -5,-5 l 0,-49"
             id="path128"
             inkscape:connector-curvature="0"
             style="fill:#dfdfdf;stroke:none" /><path
             d="m 772,303 c 0,-5 0,-5 5,-5 l 99,0 c 5,0 5,0 5,5 l 0,49 c 0,5 0,5 -5,5 l -99,0 c -5,0 -5,0 -5,-5 l 0,-49"
             id="path130"
             inkscape:connector-curvature="0"
             style="fill:#fee6e6;stroke:none" /><path
             d="m 772,303 c 0,-5 0,-5 5,-5 l 99,0 c 5,0 5,0 5,5 l 0,49 c 0,5 0,5 -5,5 l -99,0 c -5,0 -5,0 -5,-5 l 0,-49 m 0,0 c 0,-5 0,-5 5,-5 l 99,0 c 5,0 5,0 5,5 l 0,49 c 0,5 0,5 -5,5 l -99,0 c -5,0 -5,0 -5,-5 l 0,-49"
             id="path132"
             inkscape:connector-curvature="0" /><rect
             x="772"
             y="298"
             width="109"
             height="59"
             id="rect134" /><text
             transform="translate(793,307)"
             font-size="10"
             font-weight="bold"
             id="text136"
             style="font-weight:bold;font-size:10px;fill:#000000;stroke:none"><tspan
               dx="0"
               x="0"
               y="9"
               id="tspan138">Sling API</tspan></text>
<path
             d="m 866,308 c 0,-5 0,-5 4,-5 l 2,0 c 4,0 4,0 4,5 l 0,6 c 0,5 0,5 -4,5 l -2,0 c -4,0 -4,0 -4,-5 l 0,-6"
             id="path140"
             inkscape:connector-curvature="0"
             style="fill:#fee6e6;stroke:none" /><path
             d="m 866,308 c 0,-5 0,-5 4,-5 l 2,0 c 4,0 4,0 4,5 l 0,6 c 0,5 0,5 -4,5 l -2,0 c -4,0 -4,0 -4,-5 l 0,-6"
             id="path142"
             inkscape:connector-curvature="0" /><path
             d="m 863,308 c 0,-3 0,-3 2,-3 l 2,0 c 2,0 2,0 2,3 l 0,-2 c 0,3 0,3 -2,3 l -2,0 c -2,0 -2,0 -2,-3 l 0,2"
             id="path144"
             inkscape:connector-curvature="0"
             style="fill:#fee6e6;stroke:none" /><path
             d="m 863,308 c 0,-3 0,-3 2,-3 l 2,0 c 2,0 2,0 2,3 l 0,-2 c 0,3 0,3 -2,3 l -2,0 c -2,0 -2,0 -2,-3 l 0,2"
             id="path146"
             inkscape:connector-curvature="0" /><path
             d="m 863,315 c 0,-3 0,-3 2,-3 l 2,0 c 2,0 2,0 2,3 l 0,-2 c 0,3 0,3 -2,3 l -2,0 c -2,0 -2,0 -2,-3 l 0,2"
             id="path148"
             inkscape:connector-curvature="0"
             style="fill:#fee6e6;stroke:none" /><path
             d="m 863,315 c 0,-3 0,-3 2,-3 l 2,0 c 2,0 2,0 2,3 l 0,-2 c 0,3 0,3 -2,3 l -2,0 c -2,0 -2,0 -2,-3 l 0,2"
             id="path150"
             inkscape:connector-curvature="0" /><path
             d="m 207,308 c 0,-5 0,-5 5,-5 l 99,0 c 5,0 5,0 5,5 l 0,49 c 0,5 0,5 -5,5 l -99,0 c -5,0 -5,0 -5,-5 l 0,-49"
             id="path152"
             inkscape:connector-curvature="0"
             style="fill:#dfdfdf;stroke:none" /><path
             d="m 204,305 c 0,-5 0,-5 5,-5 l 99,0 c 5,0 5,0 5,5 l 0,49 c 0,5 0,5 -5,5 l -99,0 c -5,0 -5,0 -5,-5 l 0,-49"
             id="path154"
             inkscape:connector-curvature="0"
             style="fill:#fee6e6;stroke:none" /><path
             d="m 204,305 c 0,-5 0,-5 5,-5 l 99,0 c 5,0 5,0 5,5 l 0,49 c 0,5 0,5 -5,5 l -99,0 c -5,0 -5,0 -5,-5 l 0,-49 m 0,0 c 0,-5 0,-5 5,-5 l 99,0 c 5,0 5,0 5,5 l 0,49 c 0,5 0,5 -5,5 l -99,0 c -5,0 -5,0 -5,-5 l 0,-49"
             id="path156"
             inkscape:connector-curvature="0" /><rect
             x="204"
             y="300"
             width="109"
             height="59"
             id="rect158" /><text
             transform="translate(224,309)"
             font-size="10"
             font-weight="bold"
             id="text160"
             style="font-weight:bold;font-size:10px;fill:#000000;stroke:none"><tspan
               dx="0"
               x="0"
               y="9"
               id="tspan162">NEBA API</tspan></text>
<path
             d="m 298,310 c 0,-5 0,-5 4,-5 l 2,0 c 4,0 4,0 4,5 l 0,6 c 0,5 0,5 -4,5 l -2,0 c -4,0 -4,0 -4,-5 l 0,-6"
             id="path164"
             inkscape:connector-curvature="0"
             style="fill:#fee6e6;stroke:none" /><path
             d="m 298,310 c 0,-5 0,-5 4,-5 l 2,0 c 4,0 4,0 4,5 l 0,6 c 0,5 0,5 -4,5 l -2,0 c -4,0 -4,0 -4,-5 l 0,-6"
             id="path166"
             inkscape:connector-curvature="0" /><path
             d="m 295,310 c 0,-3 0,-3 2,-3 l 2,0 c 2,0 2,0 2,3 l 0,-2 c 0,3 0,3 -2,3 l -2,0 c -2,0 -2,0 -2,-3 l 0,2"
             id="path168"
             inkscape:connector-curvature="0"
             style="fill:#fee6e6;stroke:none" /><path
             d="m 295,310 c 0,-3 0,-3 2,-3 l 2,0 c 2,0 2,0 2,3 l 0,-2 c 0,3 0,3 -2,3 l -2,0 c -2,0 -2,0 -2,-3 l 0,2"
             id="path170"
             inkscape:connector-curvature="0" /><path
             d="m 295,317 c 0,-3 0,-3 2,-3 l 2,0 c 2,0 2,0 2,3 l 0,-2 c 0,3 0,3 -2,3 l -2,0 c -2,0 -2,0 -2,-3 l 0,2"
             id="path172"
             inkscape:connector-curvature="0"
             style="fill:#fee6e6;stroke:none" /><path
             d="m 295,317 c 0,-3 0,-3 2,-3 l 2,0 c 2,0 2,0 2,3 l 0,-2 c 0,3 0,3 -2,3 l -2,0 c -2,0 -2,0 -2,-3 l 0,2"
             id="path174"
             inkscape:connector-curvature="0" /><path
             d="m 373,406 0,-48"
             id="path176"
             inkscape:connector-curvature="0"
             style="stroke-dasharray:7, 4" /><path
             d="m 261,406 112,0"
             id="path178"
             inkscape:connector-curvature="0"
             style="stroke-dasharray:7, 4" /><path
             d="m 261,360 0,46"
             id="path180"
             inkscape:connector-curvature="0"
             style="stroke-dasharray:7, 4" /><path
             d="m 261,360 5,15 m -5,-15 -5,15"
             id="path182"
             inkscape:connector-curvature="0" /><path
             d="m 259,263 7,-1 m 4,-1 7,-2 m 4,-1 7,-2 m 4,-1 7,-2 m 4,-1 7,-2 m 4,-1 7,-2 m 4,-1 7,-2 m 4,-1 7,-2 m 4,-1 7,-2 m 4,-1 7,-2 m 4,-1 7,-2 m 4,-1 7,-2 m 4,-1 7,-2 m 4,-1 7,-2 m 4,-1 7,-2 m 4,-1 7,-2 m 4,-1 7,-2 m 4,-1 7,-2 m 4,-1 7,-2 m 4,-1 7,-2 m 4,-1 7,-2"
             id="path184"
             inkscape:connector-curvature="0" /><path
             d="m 259,300 0,-37"
             id="path186"
             inkscape:connector-curvature="0"
             style="stroke-dasharray:7, 4" /><path
             d="m 259,300 -5,-15 m 5,15 5,-15"
             id="path188"
             inkscape:connector-curvature="0" /><path
             d="m 554,358 0,49 m 0,0 -145,0 m 0,0 -1,-49 m 0,0 5,15 m -5,-15 -5,15"
             id="path190"
             inkscape:connector-curvature="0" /><path
             d="m 827,265 -7,-1 m -4,-2 -7,-1 m -4,-2 -7,-1 m -4,-2 -7,-1 m -4,-2 -7,-1 m -4,-2 -7,-1 m -4,-2 -7,-1 m -4,-2 -7,-1 m -4,-2 -7,-1 m -4,-2 -7,-1 m -4,-2 -7,-1 m -4,-2 -7,-1 m -4,-2 -7,-1 m -4,-2 -7,-1 m -4,-2 -7,-1 m -4,-2 -7,-1 m -4,-2 -7,-1 m -4,-2 -7,-1 m -4,-2 -7,-1 m -4,-2 -7,-1 m -4,-2 -7,-1"
             id="path192"
             inkscape:connector-curvature="0" /><path
             d="m 827,298 0,-29"
             id="path194"
             inkscape:connector-curvature="0"
             style="stroke-dasharray:7, 4" /><path
             d="m 827,298 -5,-15 m 5,15 5,-15"
             id="path196"
             inkscape:connector-curvature="0" /><path
             d="m 683,267 -7,-3 m -4,-3 -7,-3 m -4,-3 -7,-3 m -4,-3 -7,-4 m -4,-2 -7,-4 m -4,-2 -7,-4 m -4,-2 -7,-4 m -4,-2 -7,-4 m -4,-2 -1,-1"
             id="path198"
             inkscape:connector-curvature="0" /><path
             d="m 683,298 0,-29"
             id="path200"
             inkscape:connector-curvature="0"
             style="stroke-dasharray:7, 4" /><path
             d="m 683,298 -5,-15 m 5,15 5,-15"
             id="path202"
             inkscape:connector-curvature="0" /><path
             d="m 400,261 7,-3 m 4,-2 7,-4 m 4,-2 7,-4 m 4,-2 7,-3 m 4,-3 7,-3 m 4,-2 7,-4 m 4,-2 7,-4 m 4,-2 7,-3"
             id="path204"
             inkscape:connector-curvature="0" /><path
             d="m 399,298 0,-29"
             id="path206"
             inkscape:connector-curvature="0"
             style="stroke-dasharray:7, 4" /><path
             d="m 399,265 1,-4"
             id="path208"
             inkscape:connector-curvature="0" /><path
             d="m 399,298 -5,-15 m 5,15 5,-15"
             id="path210"
             inkscape:connector-curvature="0" /><path
             d="m 541,262 0,-40"
             id="path212"
             inkscape:connector-curvature="0"
             style="stroke-dasharray:7, 4" /><path
             d="m 541,298 0,-36"
             id="path214"
             inkscape:connector-curvature="0"
             style="stroke-dasharray:7, 4" /><path
             d="m 541,298 -5,-15 m 5,15 5,-15"
             id="path216"
             inkscape:connector-curvature="0" /><g
             transform="matrix(1,0,0,-1,544,223)"
             id="g218"><rect
               x="0"
               width="50"
               y="-11"
               height="11"
               id="rect220"
               style="fill:#ffffff;stroke:none" /></g><text
             transform="translate(544,223)"
             font-size="10"
             id="text222"
             style="font-size:10px;fill:#000000;stroke:none"><tspan
               dx="0"
               x="0"
               y="9"
               id="tspan224">+fragment</tspan></text>
<g
             transform="matrix(1,0,0,-1,513,251)"
             id="g226"><rect
               x="0"
               width="53"
               y="-11"
               height="11"
               id="rect228"
               style="fill:#ffffff;stroke:none" /></g><text
             transform="translate(513,251)"
             font-size="10"
             id="text230"
             style="font-size:10px;fill:#000000;stroke:none"><tspan
               dx="0"
               x="0"
               y="9"
               id="tspan232">attaches to</tspan></text>
<g
             transform="matrix(1,0,0,-1,547,273)"
             id="g234"><rect
               x="0"
               width="26"
               y="-11"
               height="11"
               id="rect236"
               style="fill:#ffffff;stroke:none" /></g><text
             transform="translate(547,273)"
             font-size="10"
             id="text238"
             style="font-size:10px;fill:#000000;stroke:none"><tspan
               dx="0"
               x="0"
               y="9"
               id="tspan240">+host</tspan></text>
<g
             transform="matrix(1,0,0,-1,673,268)"
             id="g242"><rect
               x="0"
               width="22"
               y="-11"
               height="11"
               id="rect244"
               style="fill:#ffffff;stroke:none" /></g><text
             transform="translate(673,268)"
             font-size="10"
             id="text246"
             style="font-size:10px;fill:#000000;stroke:none"><tspan
               dx="0"
               x="0"
               y="9"
               id="tspan248">Uses</tspan></text>
<g
             transform="matrix(1,0,0,-1,421,393)"
             id="g250"><rect
               x="0"
               width="126"
               y="-11"
               height="11"
               id="rect252"
               style="fill:#ffffff;stroke:none" /></g><text
             transform="translate(421,393)"
             font-size="10"
             id="text254"
             style="font-size:10px;fill:#000000;stroke:none"><tspan
               dx="0"
               x="0"
               y="9"
               id="tspan256">instantiates spring context</tspan></text>
<g
             transform="matrix(1,0,0,-1,454,410)"
             id="g258"><rect
               x="0"
               width="56"
               y="-11"
               height="11"
               id="rect260"
               style="fill:#ffffff;stroke:none" /></g><text
             transform="translate(454,410)"
             font-size="10"
             id="text262"
             style="font-size:10px;fill:#000000;stroke:none"><tspan
               dx="0"
               x="0"
               y="9"
               id="tspan264">«delegate»</tspan></text>
<g
             transform="matrix(1,0,0,-1,265,379)"
             id="g266"><rect
               x="0"
               width="110"
               y="-11"
               height="11"
               id="rect268"
               style="fill:#ffffff;stroke:none" /></g><text
             transform="translate(265,379)"
             font-size="10"
             id="text270"
             style="font-size:10px;fill:#000000;stroke:none"><tspan
               dx="0"
               x="0"
               y="9"
               id="tspan272">An application context</tspan></text>
<g
             transform="matrix(1,0,0,-1,265,392)"
             id="g274"><rect
               x="0"
               width="73"
               y="-11"
               height="11"
               id="rect276"
               style="fill:#ffffff;stroke:none" /></g><text
             transform="translate(265,392)"
             font-size="10"
             id="text278"
             style="font-size:10px;fill:#000000;stroke:none"><tspan
               dx="0"
               x="0"
               y="9"
               id="tspan280">contains beans</tspan></text>
<g
             transform="matrix(1,0,0,-1,265,405)"
             id="g282"><rect
               x="0"
               width="85"
               y="-11"
               height="11"
               id="rect284"
               style="fill:#ffffff;stroke:none" /></g><text
             transform="translate(265,405)"
             font-size="10"
             id="text286"
             style="font-size:10px;fill:#000000;stroke:none"><tspan
               dx="0"
               x="0"
               y="9"
               id="tspan288">annotated with or</tspan></text>
<g
             transform="matrix(1,0,0,-1,265,418)"
             id="g290"><rect
               x="0"
               width="69"
               y="-11"
               height="11"
               id="rect292"
               style="fill:#ffffff;stroke:none" /></g><text
             transform="translate(265,418)"
             font-size="10"
             id="text294"
             style="font-size:10px;fill:#000000;stroke:none"><tspan
               dx="0"
               x="0"
               y="9"
               id="tspan296">implementing</tspan></text>
<g
             transform="matrix(1,0,0,-1,318,265)"
             id="g298"><rect
               x="0"
               width="169"
               y="-11"
               height="11"
               id="rect300"
               style="fill:#ffffff;stroke:none" /></g><text
             transform="translate(318,265)"
             font-size="10"
             id="text302"
             style="font-size:10px;fill:#000000;stroke:none"><tspan
               dx="0"
               x="0"
               y="9"
               id="tspan304">Uses and provides infrastructure for</tspan></text>
<g
             transform="matrix(1,0,0,-1,244,212)"
             id="g306"><rect
               x="0"
               width="132"
               y="-11"
               height="11"
               id="rect308"
               style="fill:#ffffff;stroke:none" /></g><text
             transform="translate(244,212)"
             font-size="10"
             id="text310"
             style="font-size:10px;fill:#000000;stroke:none"><tspan
               dx="0"
               x="0"
               y="9"
               id="tspan312">Detects and supports beans</tspan></text>
<g
             transform="matrix(1,0,0,-1,244,225)"
             id="g314"><rect
               x="0"
               width="157"
               y="-11"
               height="11"
               id="rect316"
               style="fill:#ffffff;stroke:none" /></g><text
             transform="translate(244,225)"
             font-size="10"
             id="text318"
             style="font-size:10px;fill:#000000;stroke:none"><tspan
               dx="0"
               x="0"
               y="9"
               id="tspan320">annotated with or implementing</tspan></text>
<g
             transform="matrix(1,0,0,-1,700,228)"
             id="g322"><rect
               x="0"
               width="133"
               y="-11"
               height="11"
               id="rect324"
               style="fill:#ffffff;stroke:none" /></g><text
             transform="translate(700,228)"
             font-size="10"
             id="text326"
             style="font-size:10px;fill:#000000;stroke:none"><tspan
               dx="0"
               x="0"
               y="9"
               id="tspan328">Uses and provides interface</tspan></text>
<g
             transform="matrix(1,0,0,-1,700,241)"
             id="g330"><rect
               x="0"
               width="95"
               y="-11"
               height="11"
               id="rect332"
               style="fill:#ffffff;stroke:none" /></g><text
             transform="translate(700,241)"
             font-size="10"
             id="text334"
             style="font-size:10px;fill:#000000;stroke:none"><tspan
               dx="0"
               x="0"
               y="9"
               id="tspan336">implementations of</tspan></text>
</g></g></g></g></svg>